ISO-10303-21;
HEADER;
FILE_DESCRIPTION(('Open CASCADE Model'),'2;1');
FILE_NAME('Open CASCADE Shape Model','2026-08-24T11:09:06',('Author'),(
    'Open CASCADE'),'Open CASCADE STEP processor 7.8','Open CASCADE 7.8'
  ,'Unknown');
FILE_SCHEMA(('AUTOMOTIVE_DESIGN { 1 0 10303 214 1 1 1 1 }'));
ENDSEC;
DATA;
#1 = APPLICATION_PROTOCOL_DEFINITION('international standard',
  'automotive_design',2000,#2);
#2 = APPLICATION_CONTEXT(
  'core data for automotive mechanical design processes');
#3 = SHAPE_DEFINITION_REPRESENTATION(#4,#10);
#4 = PRODUCT_DEFINITION_SHAPE('','',#5);
#5 = PRODUCT_DEFINITION('design','',#6,#9);
#6 = PRODUCT_DEFINITION_FORMATION('','',#7);
#7 = PRODUCT('Open CASCADE STEP translator 7.8 1',
  'Open CASCADE STEP translator 7.8 1','',(#8));
#8 = PRODUCT_CONTEXT('',#2,'mechanical');
#9 = PRODUCT_DEFINITION_CONTEXT('part definition',#2,'design');
#10 = ADVANCED_BREP_SHAPE_REPRESENTATION('',(#11,#15),#1051);
#11 = AXIS2_PLACEMENT_3D('',#12,#13,#14);
#12 = CARTESIAN_POINT('',(0.,0.,0.));
#13 = DIRECTION('',(0.,0.,1.));
#14 = DIRECTION('',(1.,0.,-0.));
#15 = MANIFOLD_SOLID_BREP('',#16);
#16 = CLOSED_SHELL('',(#17,#1019,#1047));
#17 = ADVANCED_FACE('',(#18,#535),#32,.T.);
#18 = FACE_BOUND('',#19,.T.);
#19 = EDGE_LOOP('',(#20,#50,#51,#256,#279,#306,#307));
#20 = ORIENTED_EDGE('',*,*,#21,.T.);
#21 = EDGE_CURVE('',#22,#24,#26,.T.);
#22 = VERTEX_POINT('',#23);
#23 = CARTESIAN_POINT('',(13.5,-1.040949779275E-15,55.));
#24 = VERTEX_POINT('',#25);
#25 = CARTESIAN_POINT('',(-6.917458834053E-16,1.694288763871E-31,100.));
#26 = SEAM_CURVE('',#27,(#31,#43),.PCURVE_S1.);
#27 = LINE('',#28,#29);
#28 = CARTESIAN_POINT('',(30.,-7.347880794884E-15,0.));
#29 = VECTOR('',#30,1.);
#30 = DIRECTION('',(-0.287347885566,7.037993366012E-17,0.957826285221));
#31 = PCURVE('',#32,#37);
#32 = CONICAL_SURFACE('',#33,30.,0.291456794478);
#33 = AXIS2_PLACEMENT_3D('',#34,#35,#36);
#34 = CARTESIAN_POINT('',(0.,0.,0.));
#35 = DIRECTION('',(-0.,-0.,-1.));
#36 = DIRECTION('',(1.,0.,-0.));
#37 = DEFINITIONAL_REPRESENTATION('',(#38),#42);
#38 = LINE('',#39,#40);
#39 = CARTESIAN_POINT('',(-6.28318530718,0.));
#40 = VECTOR('',#41,1.);
#41 = DIRECTION('',(-0.,-1.));
#42 = ( GEOMETRIC_REPRESENTATION_CONTEXT(2) 
PARAMETRIC_REPRESENTATION_CONTEXT() REPRESENTATION_CONTEXT('2D SPACE',''
  ) );
#43 = PCURVE('',#32,#44);
#44 = DEFINITIONAL_REPRESENTATION('',(#45),#49);
#45 = LINE('',#46,#47);
#46 = CARTESIAN_POINT('',(0.,-0.));
#47 = VECTOR('',#48,1.);
#48 = DIRECTION('',(-0.,-1.));
#49 = ( GEOMETRIC_REPRESENTATION_CONTEXT(2) 
PARAMETRIC_REPRESENTATION_CONTEXT() REPRESENTATION_CONTEXT('2D SPACE',''
  ) );
#50 = ORIENTED_EDGE('',*,*,#21,.F.);
#51 = ORIENTED_EDGE('',*,*,#52,.F.);
#52 = EDGE_CURVE('',#53,#22,#55,.T.);
#53 = VERTEX_POINT('',#54);
#54 = CARTESIAN_POINT('',(16.5,-4.041334437186E-15,45.));
#55 = SURFACE_CURVE('',#56,(#119,#185),.PCURVE_S1.);
#56 = B_SPLINE_CURVE_WITH_KNOTS('',6,(#57,#58,#59,#60,#61,#62,#63,#64,
    #65,#66,#67,#68,#69,#70,#71,#72,#73,#74,#75,#76,#77,#78,#79,#80,#81,
    #82,#83,#84,#85,#86,#87,#88,#89,#90,#91,#92,#93,#94,#95,#96,#97,#98,
    #99,#100,#101,#102,#103,#104,#105,#106,#107,#108,#109,#110,#111,#112
    ,#113,#114,#115,#116,#117,#118),.UNSPECIFIED.,.F.,.F.,(7,5,5,5,5,5,5
    ,5,5,5,5,5,7),(0.,7.210202699292E-02,0.119414222151,0.184225866621,
    0.238575270183,0.28325527864,0.418143739757,0.576338213167,
    0.650086717806,0.745521059679,0.84455760514,0.908036954026,1.),
  .UNSPECIFIED.);
#57 = CARTESIAN_POINT('',(16.5,-4.041334437186E-15,45.));
#58 = CARTESIAN_POINT('',(16.5,0.239297160636,45.));
#59 = CARTESIAN_POINT('',(16.491712394982,0.478704116311,45.013743468159
    ));
#60 = CARTESIAN_POINT('',(16.475123372077,0.715164609716,45.041251874003
    ));
#61 = CARTESIAN_POINT('',(16.450814458689,0.946369930594,45.081669512012
    ));
#62 = CARTESIAN_POINT('',(16.419645226508,1.170595036514,45.133763264096
    ));
#63 = CARTESIAN_POINT('',(16.358272523132,1.52836450061,45.237031512981)
  );
#64 = CARTESIAN_POINT('',(16.331409108054,1.666651416847,45.282384939685
    ));
#65 = CARTESIAN_POINT('',(16.302252978547,1.801219643073,45.331811396605
    ));
#66 = CARTESIAN_POINT('',(16.271058999987,1.931926058363,45.384947333059
    ));
#67 = CARTESIAN_POINT('',(16.238066485989,2.05871666208,45.441454462464)
  );
#68 = CARTESIAN_POINT('',(16.15610917634,2.349939901287,45.582672379045)
  );
#69 = CARTESIAN_POINT('',(16.105758344979,2.510921905887,45.670070365379
    ));
#70 = CARTESIAN_POINT('',(16.052962160329,2.664613814469,45.762501491533
    ));
#71 = CARTESIAN_POINT('',(15.998182402059,2.811172811506,45.859333115966
    ));
#72 = CARTESIAN_POINT('',(15.941804690873,2.950823452668,45.96005020916)
  );
#73 = CARTESIAN_POINT('',(15.835768648513,3.195372066052,46.151665776363
    ));
#74 = CARTESIAN_POINT('',(15.786500757964,3.30222749693,46.241514019404)
  );
#75 = CARTESIAN_POINT('',(15.736512023527,3.404548103116,46.333579463222
    ));
#76 = CARTESIAN_POINT('',(15.685962937073,3.502471909578,46.427661604072
    ));
#77 = CARTESIAN_POINT('',(15.634992248992,3.596129319723,46.523593503813
    ));
#78 = CARTESIAN_POINT('',(15.541567312795,3.759236501204,46.701515420575
    ));
#79 = CARTESIAN_POINT('',(15.499212536838,3.830026284353,46.782946923862
    ));
#80 = CARTESIAN_POINT('',(15.456721326163,3.898083193738,46.865458721479
    ));
#81 = CARTESIAN_POINT('',(15.414154623465,3.963467684563,46.94898317976)
  );
#82 = CARTESIAN_POINT('',(15.371567859113,4.026234123606,47.033461201965
    ));
#83 = CARTESIAN_POINT('',(15.200534119039,4.268169348341,47.376605115247
    ));
#84 = CARTESIAN_POINT('',(15.072364512251,4.426454515306,47.642533082848
    ));
#85 = CARTESIAN_POINT('',(14.945834359872,4.562738523671,47.915327418284
    ));
#86 = CARTESIAN_POINT('',(14.822068153573,4.6777287731,48.1939777836));
#87 = CARTESIAN_POINT('',(14.702044855424,4.771879037183,48.477652164919
    ));
#88 = CARTESIAN_POINT('',(14.451215443936,4.931325668243,49.103576118242
    ));
#89 = CARTESIAN_POINT('',(14.322187947543,4.988790485817,49.447331984793
    ));
#90 = CARTESIAN_POINT('',(14.20089583516,5.017807229609,49.79589942472)
  );
#91 = CARTESIAN_POINT('',(14.088676197,5.017762177289,50.147983644476));
#92 = CARTESIAN_POINT('',(13.986709198693,4.98770026977,50.502028723566)
  );
#93 = CARTESIAN_POINT('',(13.853439304695,4.897464876059,51.021231720662
    ));
#94 = CARTESIAN_POINT('',(13.813475631313,4.861934768205,51.186315288284
    ));
#95 = CARTESIAN_POINT('',(13.77600797105,4.819421694764,51.351193308132)
  );
#96 = CARTESIAN_POINT('',(13.741107187791,4.769765003046,51.515631674233
    ));
#97 = CARTESIAN_POINT('',(13.708822942152,4.712788424883,51.679364096107
    ));
#98 = CARTESIAN_POINT('',(13.640813320535,4.564851068854,52.052666800974
    ));
#99 = CARTESIAN_POINT('',(13.606870273886,4.468829256168,52.261543812886
    ));
#100 = CARTESIAN_POINT('',(13.577390493917,4.359817950793,
    52.468088142093));
#101 = CARTESIAN_POINT('',(13.55235128266,4.237365981622,52.671517525325
    ));
#102 = CARTESIAN_POINT('',(13.531625494662,4.101020014614,52.87090387154
    ));
#103 = CARTESIAN_POINT('',(13.497680011516,3.793873107883,53.26674622554
    ));
#104 = CARTESIAN_POINT('',(13.484777806645,3.622007081533,
    53.462754263755));
#105 = CARTESIAN_POINT('',(13.475976811971,3.43412338145,53.652021468377
    ));
#106 = CARTESIAN_POINT('',(13.470882157442,3.229731156892,
    53.833001589906));
#107 = CARTESIAN_POINT('',(13.468911552839,3.008529403657,
    54.003815163369));
#108 = CARTESIAN_POINT('',(13.46962352274,2.617870208158,54.263842894972
    ));
#109 = CARTESIAN_POINT('',(13.470889445788,2.458379069003,
    54.360315099425));
#110 = CARTESIAN_POINT('',(13.472953009482,2.292005503687,54.45110225047
    ));
#111 = CARTESIAN_POINT('',(13.475600326805,2.11888050952,54.535527479821
    ));
#112 = CARTESIAN_POINT('',(13.478595661113,1.939283697978,
    54.612856878492));
#113 = CARTESIAN_POINT('',(13.486217914186,1.484859370044,
    54.783054508832));
#114 = CARTESIAN_POINT('',(13.490977378125,1.203220876468,
    54.867416713451));
#115 = CARTESIAN_POINT('',(13.495281618708,0.910742150212,54.93298675252
    ));
#116 = CARTESIAN_POINT('',(13.498429614,0.610137654132,54.977674798418)
  );
#117 = CARTESIAN_POINT('',(13.5,0.304987928947,55.));
#118 = CARTESIAN_POINT('',(13.5,1.224646799147E-15,55.));
#119 = PCURVE('',#32,#120);
#120 = DEFINITIONAL_REPRESENTATION('',(#121),#184);
#121 = B_SPLINE_CURVE_WITH_KNOTS('',6,(#122,#123,#124,#125,#126,#127,
    #128,#129,#130,#131,#132,#133,#134,#135,#136,#137,#138,#139,#140,
    #141,#142,#143,#144,#145,#146,#147,#148,#149,#150,#151,#152,#153,
    #154,#155,#156,#157,#158,#159,#160,#161,#162,#163,#164,#165,#166,
    #167,#168,#169,#170,#171,#172,#173,#174,#175,#176,#177,#178,#179,
    #180,#181,#182,#183),.UNSPECIFIED.,.F.,.F.,(7,5,5,5,5,5,5,5,5,5,5,5,
    7),(0.,7.210202699292E-02,0.119414222151,0.184225866621,
    0.238575270183,0.28325527864,0.418143739757,0.576338213167,
    0.650086717806,0.745521059679,0.84455760514,0.908036954026,1.),
  .UNSPECIFIED.);
#122 = CARTESIAN_POINT('',(0.,-45.));
#123 = CARTESIAN_POINT('',(-1.450285822034E-02,-45.));
#124 = CARTESIAN_POINT('',(-2.901236560427E-02,-45.01374346815));
#125 = CARTESIAN_POINT('',(-4.336512754072E-02,-45.041251874));
#126 = CARTESIAN_POINT('',(-5.744300215139E-02,-45.08166951201));
#127 = CARTESIAN_POINT('',(-7.115605694922E-02,-45.13376326409));
#128 = CARTESIAN_POINT('',(-9.3153941804E-02,-45.23703151298));
#129 = CARTESIAN_POINT('',(-0.101688405344,-45.28238493968));
#130 = CARTESIAN_POINT('',(-0.11002864514,-45.3318113966));
#131 = CARTESIAN_POINT('',(-0.118167380554,-45.38494733305));
#132 = CARTESIAN_POINT('',(-0.126101935673,-45.44145446246));
#133 = CARTESIAN_POINT('',(-0.144423688302,-45.58267237904));
#134 = CARTESIAN_POINT('',(-0.154630821573,-45.67007036537));
#135 = CARTESIAN_POINT('',(-0.164458676332,-45.76250149153));
#136 = CARTESIAN_POINT('',(-0.173915119052,-45.85933311596));
#137 = CARTESIAN_POINT('',(-0.183011081771,-45.96005020916));
#138 = CARTESIAN_POINT('',(-0.199096596781,-46.15166577636));
#139 = CARTESIAN_POINT('',(-0.206188265157,-46.2415140194));
#140 = CARTESIAN_POINT('',(-0.213042253496,-46.33357946322));
#141 = CARTESIAN_POINT('',(-0.219664905811,-46.42766160407));
#142 = CARTESIAN_POINT('',(-0.226061957564,-46.52359350381));
#143 = CARTESIAN_POINT('',(-0.237316791447,-46.70151542057));
#144 = CARTESIAN_POINT('',(-0.242245784907,-46.78294692386));
#145 = CARTESIAN_POINT('',(-0.247028711638,-46.86545872147));
#146 = CARTESIAN_POINT('',(-0.251667950241,-46.94898317976));
#147 = CARTESIAN_POINT('',(-0.256165474415,-47.03346120196));
#148 = CARTESIAN_POINT('',(-0.273678145424,-47.37660511524));
#149 = CARTESIAN_POINT('',(-0.285553833818,-47.64253308284));
#150 = CARTESIAN_POINT('',(-0.29620193684,-47.91532741828));
#151 = CARTESIAN_POINT('',(-0.305624813416,-48.1939777836));
#152 = CARTESIAN_POINT('',(-0.313806486204,-48.47765216491));
#153 = CARTESIAN_POINT('',(-0.328795631799,-49.10357611824));
#154 = CARTESIAN_POINT('',(-0.335118020543,-49.44733198479));
#155 = CARTESIAN_POINT('',(-0.339606041339,-49.79589942472));
#156 = CARTESIAN_POINT('',(-0.342136856245,-50.14798364447));
#157 = CARTESIAN_POINT('',(-0.34255834491,-50.50202872356));
#158 = CARTESIAN_POINT('',(-0.339809982154,-51.02123172066));
#159 = CARTESIAN_POINT('',(-0.338437222421,-51.18631528828));
#160 = CARTESIAN_POINT('',(-0.336546889366,-51.35119330813));
#161 = CARTESIAN_POINT('',(-0.334119078483,-51.51563167423));
#162 = CARTESIAN_POINT('',(-0.331132925847,-51.6793640961));
#163 = CARTESIAN_POINT('',(-0.322952213815,-52.05266680097));
#164 = CARTESIAN_POINT('',(-0.317366771865,-52.26154381288));
#165 = CARTESIAN_POINT('',(-0.310763682818,-52.46808814209));
#166 = CARTESIAN_POINT('',(-0.30309430579,-52.67151752532));
#167 = CARTESIAN_POINT('',(-0.294311571127,-52.87090387154));
#168 = CARTESIAN_POINT('',(-0.274050281493,-53.26674622554));
#169 = CARTESIAN_POINT('',(-0.262485197639,-53.46275426375));
#170 = CARTESIAN_POINT('',(-0.249619586089,-53.65202146837));
#171 = CARTESIAN_POINT('',(-0.235407387335,-53.8330015899));
#172 = CARTESIAN_POINT('',(-0.219820984045,-54.00381516336));
#173 = CARTESIAN_POINT('',(-0.191984223536,-54.26384289497));
#174 = CARTESIAN_POINT('',(-0.180547432492,-54.36031509942));
#175 = CARTESIAN_POINT('',(-0.16854840878,-54.45110225047));
#176 = CARTESIAN_POINT('',(-0.155998044737,-54.53552747982));
#177 = CARTESIAN_POINT('',(-0.142919703167,-54.61285687849));
#178 = CARTESIAN_POINT('',(-0.109701509395,-54.78305450883));
#179 = CARTESIAN_POINT('',(-8.900872468624E-02,-54.86741671345));
#180 = CARTESIAN_POINT('',(-6.743265472408E-02,-54.93298675252));
#181 = CARTESIAN_POINT('',(-4.519539321141E-02,-54.97767479841));
#182 = CARTESIAN_POINT('',(-2.259169844049E-02,-55.));
#183 = CARTESIAN_POINT('',(0.,-55.));
#184 = ( GEOMETRIC_REPRESENTATION_CONTEXT(2) 
PARAMETRIC_REPRESENTATION_CONTEXT() REPRESENTATION_CONTEXT('2D SPACE',''
  ) );
#185 = PCURVE('',#186,#191);
#186 = CYLINDRICAL_SURFACE('',#187,5.);
#187 = AXIS2_PLACEMENT_3D('',#188,#189,#190);
#188 = CARTESIAN_POINT('',(-34.,0.,50.));
#189 = DIRECTION('',(1.,0.,0.));
#190 = DIRECTION('',(-0.,0.,1.));
#191 = DEFINITIONAL_REPRESENTATION('',(#192),#255);
#192 = B_SPLINE_CURVE_WITH_KNOTS('',6,(#193,#194,#195,#196,#197,#198,
    #199,#200,#201,#202,#203,#204,#205,#206,#207,#208,#209,#210,#211,
    #212,#213,#214,#215,#216,#217,#218,#219,#220,#221,#222,#223,#224,
    #225,#226,#227,#228,#229,#230,#231,#232,#233,#234,#235,#236,#237,
    #238,#239,#240,#241,#242,#243,#244,#245,#246,#247,#248,#249,#250,
    #251,#252,#253,#254),.UNSPECIFIED.,.F.,.F.,(7,5,5,5,5,5,5,5,5,5,5,5,
    7),(0.,7.210202699292E-02,0.119414222151,0.184225866621,
    0.238575270183,0.28325527864,0.418143739757,0.576338213167,
    0.650086717806,0.745521059679,0.84455760514,0.908036954026,1.),
  .UNSPECIFIED.);
#193 = CARTESIAN_POINT('',(3.14159265359,50.5));
#194 = CARTESIAN_POINT('',(3.189452085717,50.5));
#195 = CARTESIAN_POINT('',(3.237333418142,50.491712394982));
#196 = CARTESIAN_POINT('',(3.284823133471,50.475123372077));
#197 = CARTESIAN_POINT('',(3.331656233044,50.450814458689));
#198 = CARTESIAN_POINT('',(3.377631574307,50.419645226508));
#199 = CARTESIAN_POINT('',(3.452106622657,50.358272523132));
#200 = CARTESIAN_POINT('',(3.481194661898,50.331409108054));
#201 = CARTESIAN_POINT('',(3.509840451031,50.302252978547));
#202 = CARTESIAN_POINT('',(3.538035567626,50.271058999987));
#203 = CARTESIAN_POINT('',(3.565783674899,50.238066485989));
#204 = CARTESIAN_POINT('',(3.630514957914,50.15610917634));
#205 = CARTESIAN_POINT('',(3.667111694138,50.105758344979));
#206 = CARTESIAN_POINT('',(3.702930068689,50.052962160329));
#207 = CARTESIAN_POINT('',(3.738016676459,49.998182402059));
#208 = CARTESIAN_POINT('',(3.772425569379,49.941804690873));
#209 = CARTESIAN_POINT('',(3.834561082542,49.835768648513));
#210 = CARTESIAN_POINT('',(3.862466339043,49.786500757964));
#211 = CARTESIAN_POINT('',(3.88997210887,49.736512023527));
#212 = CARTESIAN_POINT('',(3.91711019164,49.685962937073));
#213 = CARTESIAN_POINT('',(3.943910853758,49.634992248992));
#214 = CARTESIAN_POINT('',(3.992185137228,49.541567312795));
#215 = CARTESIAN_POINT('',(4.013757512776,49.499212536838));
#216 = CARTESIAN_POINT('',(4.035138390363,49.456721326163));
#217 = CARTESIAN_POINT('',(4.056342819599,49.414154623465));
#218 = CARTESIAN_POINT('',(4.077384966412,49.371567859113));
#219 = CARTESIAN_POINT('',(4.161356484962,49.200534119039));
#220 = CARTESIAN_POINT('',(4.223066316571,49.072364512251));
#221 = CARTESIAN_POINT('',(4.28381356994,48.945834359872));
#222 = CARTESIAN_POINT('',(4.34387340213,48.822068153573));
#223 = CARTESIAN_POINT('',(4.403500978719,48.702044855424));
#224 = CARTESIAN_POINT('',(4.532683643733,48.451215443936));
#225 = CARTESIAN_POINT('',(4.602144462839,48.322187947543));
#226 = CARTESIAN_POINT('',(4.671742165612,48.20089583516));
#227 = CARTESIAN_POINT('',(4.741788040179,48.088676197));
#228 = CARTESIAN_POINT('',(4.81258102968,47.986709198693));
#229 = CARTESIAN_POINT('',(4.917978217209,47.853439304695));
#230 = CARTESIAN_POINT('',(4.95172406297,47.813475631313));
#231 = CARTESIAN_POINT('',(4.985736322292,47.77600797105));
#232 = CARTESIAN_POINT('',(5.020046768313,47.741107187791));
#233 = CARTESIAN_POINT('',(5.054688120475,47.708822942152));
#234 = CARTESIAN_POINT('',(5.134997614502,47.640813320535));
#235 = CARTESIAN_POINT('',(5.180909797647,47.606870273886));
#236 = CARTESIAN_POINT('',(5.22751261148,47.577390493917));
#237 = CARTESIAN_POINT('',(5.27488417051,47.55235128266));
#238 = CARTESIAN_POINT('',(5.32310643503,47.531625494662));
#239 = CARTESIAN_POINT('',(5.423312301432,47.497680011516));
#240 = CARTESIAN_POINT('',(5.475355744732,47.484777806645));
#241 = CARTESIAN_POINT('',(5.528537004109,47.475976811971));
#242 = CARTESIAN_POINT('',(5.582959112698,47.470882157442));
#243 = CARTESIAN_POINT('',(5.638716544643,47.468911552839));
#244 = CARTESIAN_POINT('',(5.732573676121,47.46962352274));
#245 = CARTESIAN_POINT('',(5.76981841494,47.470889445788));
#246 = CARTESIAN_POINT('',(5.807667746581,47.472953009482));
#247 = CARTESIAN_POINT('',(5.846127481236,47.475600326805));
#248 = CARTESIAN_POINT('',(5.885189488166,47.478595661113));
#249 = CARTESIAN_POINT('',(5.982239723239,47.486217914186));
#250 = CARTESIAN_POINT('',(6.040906713641,47.490977378125));
#251 = CARTESIAN_POINT('',(6.100627674766,47.495281618708));
#252 = CARTESIAN_POINT('',(6.161157943082,47.498429614));
#253 = CARTESIAN_POINT('',(6.22218772139,47.5));
#254 = CARTESIAN_POINT('',(6.28318530718,47.5));
#255 = ( GEOMETRIC_REPRESENTATION_CONTEXT(2) 
PARAMETRIC_REPRESENTATION_CONTEXT() REPRESENTATION_CONTEXT('2D SPACE',''
  ) );
#256 = ORIENTED_EDGE('',*,*,#257,.F.);
#257 = EDGE_CURVE('',#258,#53,#260,.T.);
#258 = VERTEX_POINT('',#259);
#259 = CARTESIAN_POINT('',(30.,-7.347880794884E-15,0.));
#260 = SEAM_CURVE('',#261,(#265,#272),.PCURVE_S1.);
#261 = LINE('',#262,#263);
#262 = CARTESIAN_POINT('',(30.,-7.347880794884E-15,0.));
#263 = VECTOR('',#264,1.);
#264 = DIRECTION('',(-0.287347885566,7.037993366012E-17,0.957826285221)
  );
#265 = PCURVE('',#32,#266);
#266 = DEFINITIONAL_REPRESENTATION('',(#267),#271);
#267 = LINE('',#268,#269);
#268 = CARTESIAN_POINT('',(-6.28318530718,0.));
#269 = VECTOR('',#270,1.);
#270 = DIRECTION('',(-0.,-1.));
#271 = ( GEOMETRIC_REPRESENTATION_CONTEXT(2) 
PARAMETRIC_REPRESENTATION_CONTEXT() REPRESENTATION_CONTEXT('2D SPACE',''
  ) );
#272 = PCURVE('',#32,#273);
#273 = DEFINITIONAL_REPRESENTATION('',(#274),#278);
#274 = LINE('',#275,#276);
#275 = CARTESIAN_POINT('',(0.,-0.));
#276 = VECTOR('',#277,1.);
#277 = DIRECTION('',(-0.,-1.));
#278 = ( GEOMETRIC_REPRESENTATION_CONTEXT(2) 
PARAMETRIC_REPRESENTATION_CONTEXT() REPRESENTATION_CONTEXT('2D SPACE',''
  ) );
#279 = ORIENTED_EDGE('',*,*,#280,.T.);
#280 = EDGE_CURVE('',#258,#258,#281,.T.);
#281 = SURFACE_CURVE('',#282,(#287,#294),.PCURVE_S1.);
#282 = CIRCLE('',#283,30.);
#283 = AXIS2_PLACEMENT_3D('',#284,#285,#286);
#284 = CARTESIAN_POINT('',(0.,0.,0.));
#285 = DIRECTION('',(0.,0.,1.));
#286 = DIRECTION('',(1.,0.,-0.));
#287 = PCURVE('',#32,#288);
#288 = DEFINITIONAL_REPRESENTATION('',(#289),#293);
#289 = LINE('',#290,#291);
#290 = CARTESIAN_POINT('',(-0.,-0.));
#291 = VECTOR('',#292,1.);
#292 = DIRECTION('',(-1.,-0.));
#293 = ( GEOMETRIC_REPRESENTATION_CONTEXT(2) 
PARAMETRIC_REPRESENTATION_CONTEXT() REPRESENTATION_CONTEXT('2D SPACE',''
  ) );
#294 = PCURVE('',#295,#300);
#295 = PLANE('',#296);
#296 = AXIS2_PLACEMENT_3D('',#297,#298,#299);
#297 = CARTESIAN_POINT('',(0.,0.,0.));
#298 = DIRECTION('',(0.,0.,1.));
#299 = DIRECTION('',(1.,0.,-0.));
#300 = DEFINITIONAL_REPRESENTATION('',(#301),#305);
#301 = CIRCLE('',#302,30.);
#302 = AXIS2_PLACEMENT_2D('',#303,#304);
#303 = CARTESIAN_POINT('',(0.,0.));
#304 = DIRECTION('',(1.,0.));
#305 = ( GEOMETRIC_REPRESENTATION_CONTEXT(2) 
PARAMETRIC_REPRESENTATION_CONTEXT() REPRESENTATION_CONTEXT('2D SPACE',''
  ) );
#306 = ORIENTED_EDGE('',*,*,#257,.T.);
#307 = ORIENTED_EDGE('',*,*,#308,.F.);
#308 = EDGE_CURVE('',#22,#53,#309,.T.);
#309 = SURFACE_CURVE('',#310,(#383,#459),.PCURVE_S1.);
#310 = B_SPLINE_CURVE_WITH_KNOTS('',8,(#311,#312,#313,#314,#315,#316,
    #317,#318,#319,#320,#321,#322,#323,#324,#325,#326,#327,#328,#329,
    #330,#331,#332,#333,#334,#335,#336,#337,#338,#339,#340,#341,#342,
    #343,#344,#345,#346,#347,#348,#349,#350,#351,#352,#353,#354,#355,
    #356,#357,#358,#359,#360,#361,#362,#363,#364,#365,#366,#367,#368,
    #369,#370,#371,#372,#373,#374,#375,#376,#377,#378,#379,#380,#381,
    #382),.UNSPECIFIED.,.F.,.F.,(9,7,7,7,7,7,7,7,7,7,9),(0.,
    9.236962265672E-02,0.15541874924,0.254952509316,0.349863012509,
    0.581239912172,0.703150081559,0.816272763597,0.880581976247,
    0.92789568401,1.),.UNSPECIFIED.);
#311 = CARTESIAN_POINT('',(13.5,8.881784197001E-16,55.));
#312 = CARTESIAN_POINT('',(13.5,-0.229801724364,55.));
#313 = CARTESIAN_POINT('',(13.499150608947,-0.459681417732,
    54.987929368411));
#314 = CARTESIAN_POINT('',(13.497450687808,-0.68793595916,
    54.963774023555));
#315 = CARTESIAN_POINT('',(13.494988943818,-0.913114115045,
    54.927856730273));
#316 = CARTESIAN_POINT('',(13.491934664076,-1.13397867602,
    54.880723725968));
#317 = CARTESIAN_POINT('',(13.488513335602,-1.349483402514,
    54.823077498579));
#318 = CARTESIAN_POINT('',(13.484977661952,-1.558758248369,
    54.755734622395));
#319 = CARTESIAN_POINT('',(13.479268392168,-1.899207098943,
    54.627611531514));
#320 = CARTESIAN_POINT('',(13.477017615655,-2.034149471174,
    54.57150965514));
#321 = CARTESIAN_POINT('',(13.474912913153,-2.16575295904,54.5115369929)
  );
#322 = CARTESIAN_POINT('',(13.473036040417,-2.293891075126,
    54.447949544607));
#323 = CARTESIAN_POINT('',(13.471466973037,-2.418474805759,
    54.380997813632));
#324 = CARTESIAN_POINT('',(13.470281988962,-2.539447106607,
    54.310921467725));
#325 = CARTESIAN_POINT('',(13.469552613166,-2.656778422245,
    54.237945092575));
#326 = CARTESIAN_POINT('',(13.46901834196,-2.949934016409,
    54.042816998738));
#327 = CARTESIAN_POINT('',(13.46999269723,-3.120276348252,
    53.916672767477));
#328 = CARTESIAN_POINT('',(13.472529468184,-3.281510665086,
    53.784635380829));
#329 = CARTESIAN_POINT('',(13.476859611457,-3.43371090951,
    53.647430617274));
#330 = CARTESIAN_POINT('',(13.483178556419,-3.576998446787,
    53.505714256511));
#331 = CARTESIAN_POINT('',(13.491645337051,-3.711533952674,
    53.36006837382));
#332 = CARTESIAN_POINT('',(13.502386361693,-3.837507269153,
    53.210996669518));
#333 = CARTESIAN_POINT('',(13.528011985083,-4.067279934766,
    52.913904881228));
#334 = CARTESIAN_POINT('',(13.542678637328,-4.171817174674,
    52.766183910873));
#335 = CARTESIAN_POINT('',(13.559589561275,-4.268908680095,
    52.616137340531));
#336 = CARTESIAN_POINT('',(13.578805650466,-4.358718744005,
    52.464113073128));
#337 = CARTESIAN_POINT('',(13.600364422047,-4.441407675734,
    52.310426981821));
#338 = CARTESIAN_POINT('',(13.624282377647,-4.517133022983,
    52.155363797437));
#339 = CARTESIAN_POINT('',(13.650558211236,-4.586048560192,
    51.99917739799));
#340 = CARTESIAN_POINT('',(13.748944644335,-4.800062819286,
    51.459137316539));
#341 = CARTESIAN_POINT('',(13.832578553706,-4.912101127692,
    51.071147394984));
#342 = CARTESIAN_POINT('',(13.929866148145,-4.986758537446,
    50.68110838909));
#343 = CARTESIAN_POINT('',(14.040043187527,-5.025739238607,
    50.291503409251));
#344 = CARTESIAN_POINT('',(14.161932466007,-5.03048632884,
    49.904392133874));
#345 = CARTESIAN_POINT('',(14.294133316633,-5.002035958574,
    49.521465722547));
#346 = CARTESIAN_POINT('',(14.435159798336,-4.941018573773,
    49.144097410035));
#347 = CARTESIAN_POINT('',(14.661718690693,-4.797775925621,
    48.57804972813));
#348 = CARTESIAN_POINT('',(14.741913573587,-4.739258212002,
    48.384632001068));
#349 = CARTESIAN_POINT('',(14.823899950016,-4.671633977223,
    48.193297532187));
#350 = CARTESIAN_POINT('',(14.907435089971,-4.59483292216,
    48.004244484077));
#351 = CARTESIAN_POINT('',(14.992257129753,-4.508738341624,
    47.817695319884));
#352 = CARTESIAN_POINT('',(15.078083855669,-4.413181635664,
    47.63389798027));
#353 = CARTESIAN_POINT('',(15.164610489364,-4.307925555086,
    47.453129431596));
#354 = CARTESIAN_POINT('',(15.332138853388,-4.085657056709,
    47.111063032697));
#355 = CARTESIAN_POINT('',(15.413060212348,-3.970077296311,
    46.949360213748));
#356 = CARTESIAN_POINT('',(15.494023075247,-3.845616486649,
    46.790803802134));
#357 = CARTESIAN_POINT('',(15.574727918436,-3.711957009882,
    46.635702542647));
#358 = CARTESIAN_POINT('',(15.654816583706,-3.568745392955,
    46.484461198199));
#359 = CARTESIAN_POINT('',(15.73386859433,-3.41559468675,46.337578454345
    ));
#360 = CARTESIAN_POINT('',(15.811394912912,-3.252067111457,
    46.195653040468));
#361 = CARTESIAN_POINT('',(15.929704245019,-2.978442455584,
    45.981951313087));
#362 = CARTESIAN_POINT('',(15.971896533039,-2.875762266374,
    45.906350164654));
#363 = CARTESIAN_POINT('',(16.013294393845,-2.769482429498,
    45.832737332023));
#364 = CARTESIAN_POINT('',(16.053774416835,-2.659518797814,
    45.761274754752));
#365 = CARTESIAN_POINT('',(16.093196639157,-2.545798816968,
    45.692150350647));
#366 = CARTESIAN_POINT('',(16.131405254422,-2.428264057903,
    45.625576505007));
#367 = CARTESIAN_POINT('',(16.168229321405,-2.306872749367,
    45.56178855987));
#368 = CARTESIAN_POINT('',(16.229420730367,-2.089438082395,
    45.456351676653));
#369 = CARTESIAN_POINT('',(16.254505935552,-1.995181912272,
    45.413310965555));
#370 = CARTESIAN_POINT('',(16.278664789678,-1.898829922491,
    45.372024556251));
#371 = CARTESIAN_POINT('',(16.301816291764,-1.800392133409,
    45.332606293308));
#372 = CARTESIAN_POINT('',(16.323874423384,-1.699895062961,
    45.295177957323));
#373 = CARTESIAN_POINT('',(16.34474983356,-1.597384326305,
    45.259866742676));
#374 = CARTESIAN_POINT('',(16.364351523661,-1.492927235473,
    45.226802735281));
#375 = CARTESIAN_POINT('',(16.410381049409,-1.224600147808,
    45.149351551622));
#376 = CARTESIAN_POINT('',(16.435019571087,-1.05818949202,
    45.108082802655));
#377 = CARTESIAN_POINT('',(16.456156648058,-0.887820762694,
    45.072816122762));
#378 = CARTESIAN_POINT('',(16.473469106243,-0.714038544403,
    45.044018143994));
#379 = CARTESIAN_POINT('',(16.486675699634,-0.537503584687,
    45.022095387673));
#380 = CARTESIAN_POINT('',(16.495560210937,-0.359004586524,
    45.007362573324));
#381 = CARTESIAN_POINT('',(16.5,-0.179472883831,45.));
#382 = CARTESIAN_POINT('',(16.5,-4.440892098501E-15,45.));
#383 = PCURVE('',#32,#384);
#384 = DEFINITIONAL_REPRESENTATION('',(#385),#458);
#385 = B_SPLINE_CURVE_WITH_KNOTS('',8,(#386,#387,#388,#389,#390,#391,
    #392,#393,#394,#395,#396,#397,#398,#399,#400,#401,#402,#403,#404,
    #405,#406,#407,#408,#409,#410,#411,#412,#413,#414,#415,#416,#417,
    #418,#419,#420,#421,#422,#423,#424,#425,#426,#427,#428,#429,#430,
    #431,#432,#433,#434,#435,#436,#437,#438,#439,#440,#441,#442,#443,
    #444,#445,#446,#447,#448,#449,#450,#451,#452,#453,#454,#455,#456,
    #457),.UNSPECIFIED.,.F.,.F.,(9,7,7,7,7,7,7,7,7,7,9),(0.,
    9.236962265672E-02,0.15541874924,0.254952509316,0.349863012509,
    0.581239912172,0.703150081559,0.816272763597,0.880581976247,
    0.92789568401,1.),.UNSPECIFIED.);
#386 = CARTESIAN_POINT('',(-6.28318530718,-55.));
#387 = CARTESIAN_POINT('',(-6.266162957227,-55.));
#388 = CARTESIAN_POINT('',(-6.249134831065,-54.98792936841));
#389 = CARTESIAN_POINT('',(-6.232237838229,-54.96377402355));
#390 = CARTESIAN_POINT('',(-6.215590243739,-54.92785673027));
#391 = CARTESIAN_POINT('',(-6.199293435535,-54.88072372596));
#392 = CARTESIAN_POINT('',(-6.183433094209,-54.82307749857));
#393 = CARTESIAN_POINT('',(-6.168080041698,-54.75573462239));
#394 = CARTESIAN_POINT('',(-6.143196457518,-54.62761153151));
#395 = CARTESIAN_POINT('',(-6.1333600269,-54.57150965514));
#396 = CARTESIAN_POINT('',(-6.123795881676,-54.5115369929));
#397 = CARTESIAN_POINT('',(-6.114514543646,-54.4479495446));
#398 = CARTESIAN_POINT('',(-6.105523433287,-54.38099781363));
#399 = CARTESIAN_POINT('',(-6.096827309611,-54.31092146772));
#400 = CARTESIAN_POINT('',(-6.088428645033,-54.23794509257));
#401 = CARTESIAN_POINT('',(-6.06753958838,-54.04281699873));
#402 = CARTESIAN_POINT('',(-6.055496698681,-53.91667276747));
#403 = CARTESIAN_POINT('',(-6.044198137863,-53.78463538082));
#404 = CARTESIAN_POINT('',(-6.033637418617,-53.64743061727));
#405 = CARTESIAN_POINT('',(-6.023803364706,-53.50571425651));
#406 = CARTESIAN_POINT('',(-6.014680951378,-53.36006837382));
#407 = CARTESIAN_POINT('',(-6.006252316133,-53.21099666951));
#408 = CARTESIAN_POINT('',(-5.99110374759,-52.91390488122));
#409 = CARTESIAN_POINT('',(-5.984323967027,-52.76618391087));
#410 = CARTESIAN_POINT('',(-5.97814210469,-52.61613734053));
#411 = CARTESIAN_POINT('',(-5.972541633661,-52.46411307312));
#412 = CARTESIAN_POINT('',(-5.967505848718,-52.31042698182));
#413 = CARTESIAN_POINT('',(-5.963017885571,-52.15536379743));
#414 = CARTESIAN_POINT('',(-5.959060904155,-51.99917739799));
#415 = CARTESIAN_POINT('',(-5.947226239326,-51.45913731653));
#416 = CARTESIAN_POINT('',(-5.941898703842,-51.07114739498));
#417 = CARTESIAN_POINT('',(-5.939382726999,-50.68110838908));
#418 = CARTESIAN_POINT('',(-5.939463315732,-50.29150340925));
#419 = CARTESIAN_POINT('',(-5.941941567209,-49.90439213386));
#420 = CARTESIAN_POINT('',(-5.946650895909,-49.52146572254));
#421 = CARTESIAN_POINT('',(-5.953459240314,-49.14409741003));
#422 = CARTESIAN_POINT('',(-5.966954157444,-48.57804972813));
#423 = CARTESIAN_POINT('',(-5.972172876374,-48.38463200106));
#424 = CARTESIAN_POINT('',(-5.977942373796,-48.19329753218));
#425 = CARTESIAN_POINT('',(-5.984255050325,-48.00424448407));
#426 = CARTESIAN_POINT('',(-5.991106564736,-47.81769531988));
#427 = CARTESIAN_POINT('',(-5.998496201237,-47.63389798027));
#428 = CARTESIAN_POINT('',(-6.006427942382,-47.45312943159));
#429 = CARTESIAN_POINT('',(-6.022784990037,-47.11106303269));
#430 = CARTESIAN_POINT('',(-6.031130682738,-46.94936021374));
#431 = CARTESIAN_POINT('',(-6.039958864556,-46.79080380213));
#432 = CARTESIAN_POINT('',(-6.049281157783,-46.63570254264));
#433 = CARTESIAN_POINT('',(-6.059111373194,-46.48446119819));
#434 = CARTESIAN_POINT('',(-6.069465668905,-46.33757845434));
#435 = CARTESIAN_POINT('',(-6.080364010454,-46.19565304046));
#436 = CARTESIAN_POINT('',(-6.098354865949,-45.98195131308));
#437 = CARTESIAN_POINT('',(-6.105058791096,-45.90635016465));
#438 = CARTESIAN_POINT('',(-6.111950631283,-45.83273733202));
#439 = CARTESIAN_POINT('',(-6.119034540239,-45.76127475475));
#440 = CARTESIAN_POINT('',(-6.126314088531,-45.69215035064));
#441 = CARTESIAN_POINT('',(-6.133792203019,-45.625576505));
#442 = CARTESIAN_POINT('',(-6.141471106301,-45.56178855987));
#443 = CARTESIAN_POINT('',(-6.155150592155,-45.45635167665));
#444 = CARTESIAN_POINT('',(-6.161057913849,-45.41331096555));
#445 = CARTESIAN_POINT('',(-6.167074485742,-45.37202455625));
#446 = CARTESIAN_POINT('',(-6.17319984023,-45.3326062933));
#447 = CARTESIAN_POINT('',(-6.179432650297,-45.29517795732));
#448 = CARTESIAN_POINT('',(-6.1857706022,-45.25986674267));
#449 = CARTESIAN_POINT('',(-6.19221026815,-45.22680273528));
#450 = CARTESIAN_POINT('',(-6.208708681152,-45.14935155162));
#451 = CARTESIAN_POINT('',(-6.218901160614,-45.10808280265));
#452 = CARTESIAN_POINT('',(-6.229300858928,-45.07281612276));
#453 = CARTESIAN_POINT('',(-6.239879081448,-45.04401814399));
#454 = CARTESIAN_POINT('',(-6.250601542977,-45.02209538767));
#455 = CARTESIAN_POINT('',(-6.261427456173,-45.00736257332));
#456 = CARTESIAN_POINT('',(-6.272308162705,-45.));
#457 = CARTESIAN_POINT('',(-6.28318530718,-45.));
#458 = ( GEOMETRIC_REPRESENTATION_CONTEXT(2) 
PARAMETRIC_REPRESENTATION_CONTEXT() REPRESENTATION_CONTEXT('2D SPACE',''
  ) );
#459 = PCURVE('',#186,#460);
#460 = DEFINITIONAL_REPRESENTATION('',(#461),#534);
#461 = B_SPLINE_CURVE_WITH_KNOTS('',8,(#462,#463,#464,#465,#466,#467,
    #468,#469,#470,#471,#472,#473,#474,#475,#476,#477,#478,#479,#480,
    #481,#482,#483,#484,#485,#486,#487,#488,#489,#490,#491,#492,#493,
    #494,#495,#496,#497,#498,#499,#500,#501,#502,#503,#504,#505,#506,
    #507,#508,#509,#510,#511,#512,#513,#514,#515,#516,#517,#518,#519,
    #520,#521,#522,#523,#524,#525,#526,#527,#528,#529,#530,#531,#532,
    #533),.UNSPECIFIED.,.F.,.F.,(9,7,7,7,7,7,7,7,7,7,9),(0.,
    9.236962265672E-02,0.15541874924,0.254952509316,0.349863012509,
    0.581239912172,0.703150081559,0.816272763597,0.880581976247,
    0.92789568401,1.),.UNSPECIFIED.);
#462 = CARTESIAN_POINT('',(0.,47.5));
#463 = CARTESIAN_POINT('',(4.596034487286E-02,47.5));
#464 = CARTESIAN_POINT('',(9.193627473459E-02,47.499150608947));
#465 = CARTESIAN_POINT('',(0.137735158373,47.497450687808));
#466 = CARTESIAN_POINT('',(0.183214956554,47.494988943818));
#467 = CARTESIAN_POINT('',(0.228263235263,47.491934664076));
#468 = CARTESIAN_POINT('',(0.272786124396,47.488513335602));
#469 = CARTESIAN_POINT('',(0.316702825079,47.484977661952));
#470 = CARTESIAN_POINT('',(0.389454717501,47.479268392168));
#471 = CARTESIAN_POINT('',(0.418665732142,47.477017615655));
#472 = CARTESIAN_POINT('',(0.447563622542,47.474912913153));
#473 = CARTESIAN_POINT('',(0.47614244874,47.473036040416));
#474 = CARTESIAN_POINT('',(0.504400099929,47.471466973037));
#475 = CARTESIAN_POINT('',(0.532337716462,47.470281988962));
#476 = CARTESIAN_POINT('',(0.55995945496,47.469552613166));
#477 = CARTESIAN_POINT('',(0.630391031797,47.46901834196));
#478 = CARTESIAN_POINT('',(0.672730627425,47.46999269723));
#479 = CARTESIAN_POINT('',(0.714329003951,47.472529468184));
#480 = CARTESIAN_POINT('',(0.75522176733,47.476859611457));
#481 = CARTESIAN_POINT('',(0.795444444061,47.483178556419));
#482 = CARTESIAN_POINT('',(0.835034274346,47.491645337051));
#483 = CARTESIAN_POINT('',(0.874031863322,47.502386361693));
#484 = CARTESIAN_POINT('',(0.94914750977,47.528011985083));
#485 = CARTESIAN_POINT('',(0.985308553198,47.542678637328));
#486 = CARTESIAN_POINT('',(1.021001556452,47.559589561275));
#487 = CARTESIAN_POINT('',(1.056258095967,47.578805650466));
#488 = CARTESIAN_POINT('',(1.091107262069,47.600364422047));
#489 = CARTESIAN_POINT('',(1.125576982259,47.624282377647));
#490 = CARTESIAN_POINT('',(1.159694994482,47.650558211236));
#491 = CARTESIAN_POINT('',(1.275875094787,47.748944644335));
#492 = CARTESIAN_POINT('',(1.356270299421,47.832578553706));
#493 = CARTESIAN_POINT('',(1.435143807329,47.929866148145));
#494 = CARTESIAN_POINT('',(1.512840601349,48.040043187527));
#495 = CARTESIAN_POINT('',(1.589686272691,48.161932466007));
#496 = CARTESIAN_POINT('',(1.666008427447,48.294133316633));
#497 = CARTESIAN_POINT('',(1.742169567745,48.435159798336));
#498 = CARTESIAN_POINT('',(1.858947722284,48.661718690693));
#499 = CARTESIAN_POINT('',(1.899320356326,48.741913573587));
#500 = CARTESIAN_POINT('',(1.939835411564,48.823899950016));
#501 = CARTESIAN_POINT('',(1.980559571753,48.907435089971));
#502 = CARTESIAN_POINT('',(2.021561122099,48.992257129753));
#503 = CARTESIAN_POINT('',(2.062913297327,49.078083855669));
#504 = CARTESIAN_POINT('',(2.104699172261,49.164610489364));
#505 = CARTESIAN_POINT('',(2.186286599387,49.332138853388));
#506 = CARTESIAN_POINT('',(2.225999980656,49.413060212348));
#507 = CARTESIAN_POINT('',(2.266245810465,49.494023075247));
#508 = CARTESIAN_POINT('',(2.307107783228,49.574727918436));
#509 = CARTESIAN_POINT('',(2.348670918565,49.654816583706));
#510 = CARTESIAN_POINT('',(2.391025221475,49.73386859433));
#511 = CARTESIAN_POINT('',(2.434272738447,49.811394912912));
#512 = CARTESIAN_POINT('',(2.503710157923,49.929704245019));
#513 = CARTESIAN_POINT('',(2.529201854339,49.971896533039));
#514 = CARTESIAN_POINT('',(2.555040443422,50.013294393845));
#515 = CARTESIAN_POINT('',(2.581246194633,50.053774416835));
#516 = CARTESIAN_POINT('',(2.607837525517,50.093196639157));
#517 = CARTESIAN_POINT('',(2.634831286694,50.131405254422));
#518 = CARTESIAN_POINT('',(2.662243046854,50.168229321405));
#519 = CARTESIAN_POINT('',(2.710573066818,50.229420730367));
#520 = CARTESIAN_POINT('',(2.731291177422,50.254505935552));
#521 = CARTESIAN_POINT('',(2.752246408398,50.278664789678));
#522 = CARTESIAN_POINT('',(2.773441424281,50.301816291764));
#523 = CARTESIAN_POINT('',(2.794876577564,50.323874423384));
#524 = CARTESIAN_POINT('',(2.816549630955,50.34474983356));
#525 = CARTESIAN_POINT('',(2.838455479636,50.364351523661));
#526 = CARTESIAN_POINT('',(2.894311763732,50.410381049409));
#527 = CARTESIAN_POINT('',(2.928577377808,50.435019571087));
#528 = CARTESIAN_POINT('',(2.963329243072,50.456156648058));
#529 = CARTESIAN_POINT('',(2.998502868404,50.473469106243));
#530 = CARTESIAN_POINT('',(3.034021411682,50.486675699634));
#531 = CARTESIAN_POINT('',(3.069791767737,50.495560210937));
#532 = CARTESIAN_POINT('',(3.105698076824,50.5));
#533 = CARTESIAN_POINT('',(3.14159265359,50.5));
#534 = ( GEOMETRIC_REPRESENTATION_CONTEXT(2) 
PARAMETRIC_REPRESENTATION_CONTEXT() REPRESENTATION_CONTEXT('2D SPACE',''
  ) );
#535 = FACE_BOUND('',#536,.T.);
#536 = EDGE_LOOP('',(#537));
#537 = ORIENTED_EDGE('',*,*,#538,.T.);
#538 = EDGE_CURVE('',#539,#539,#541,.T.);
#539 = VERTEX_POINT('',#540);
#540 = CARTESIAN_POINT('',(-13.5,1.224646799147E-15,55.));
#541 = SURFACE_CURVE('',#542,(#699,#859),.PCURVE_S1.);
#542 = B_SPLINE_CURVE_WITH_KNOTS('',8,(#543,#544,#545,#546,#547,#548,
    #549,#550,#551,#552,#553,#554,#555,#556,#557,#558,#559,#560,#561,
    #562,#563,#564,#565,#566,#567,#568,#569,#570,#571,#572,#573,#574,
    #575,#576,#577,#578,#579,#580,#581,#582,#583,#584,#585,#586,#587,
    #588,#589,#590,#591,#592,#593,#594,#595,#596,#597,#598,#599,#600,
    #601,#602,#603,#604,#605,#606,#607,#608,#609,#610,#611,#612,#613,
    #614,#615,#616,#617,#618,#619,#620,#621,#622,#623,#624,#625,#626,
    #627,#628,#629,#630,#631,#632,#633,#634,#635,#636,#637,#638,#639,
    #640,#641,#642,#643,#644,#645,#646,#647,#648,#649,#650,#651,#652,
    #653,#654,#655,#656,#657,#658,#659,#660,#661,#662,#663,#664,#665,
    #666,#667,#668,#669,#670,#671,#672,#673,#674,#675,#676,#677,#678,
    #679,#680,#681,#682,#683,#684,#685,#686,#687,#688,#689,#690,#691,
    #692,#693,#694,#695,#696,#697,#698),.UNSPECIFIED.,.T.,.F.,(9,7,7,7,7
    ,7,7,7,7,7,7,7,7,7,7,7,7,7,7,7,7,7,9),(0.,4.618395016406E-02,
    7.770792564707E-02,0.127473877729,0.174928244473,0.290614537172,
    0.351568485294,0.408128771668,0.440282778437,0.463939191212,
    0.475969174094,0.499999889711,0.524030605328,0.53606058821,
    0.559717000984,0.591871007753,0.647862806502,0.70878806189,
    0.82507167789,0.872525843165,0.922291583965,0.953815425613,1.),
  .UNSPECIFIED.);
#543 = CARTESIAN_POINT('',(-13.5,8.881784197001E-16,55.));
#544 = CARTESIAN_POINT('',(-13.5,-0.229801724366,55.));
#545 = CARTESIAN_POINT('',(-13.49915060894,-0.459681417728,
    54.987929368412));
#546 = CARTESIAN_POINT('',(-13.4974506878,-0.687935959163,
    54.963774023554));
#547 = CARTESIAN_POINT('',(-13.49498894381,-0.913114115046,
    54.927856730273));
#548 = CARTESIAN_POINT('',(-13.49193466407,-1.133978676016,
    54.88072372597));
#549 = CARTESIAN_POINT('',(-13.4885133356,-1.349483402517,
    54.823077498577));
#550 = CARTESIAN_POINT('',(-13.48497766195,-1.558758248368,
    54.755734622395));
#551 = CARTESIAN_POINT('',(-13.47926839216,-1.899207098943,
    54.627611531514));
#552 = CARTESIAN_POINT('',(-13.47701761565,-2.034149471174,
    54.57150965514));
#553 = CARTESIAN_POINT('',(-13.47491291315,-2.16575295904,54.5115369929)
  );
#554 = CARTESIAN_POINT('',(-13.47303604041,-2.293891075125,
    54.447949544607));
#555 = CARTESIAN_POINT('',(-13.47146697303,-2.418474805759,
    54.380997813632));
#556 = CARTESIAN_POINT('',(-13.47028198896,-2.539447106607,
    54.310921467725));
#557 = CARTESIAN_POINT('',(-13.46955261316,-2.656778422245,
    54.237945092575));
#558 = CARTESIAN_POINT('',(-13.46901834196,-2.949934016409,
    54.042816998738));
#559 = CARTESIAN_POINT('',(-13.46999269723,-3.120276348252,
    53.916672767477));
#560 = CARTESIAN_POINT('',(-13.47252946818,-3.281510665086,
    53.784635380829));
#561 = CARTESIAN_POINT('',(-13.47685961145,-3.43371090951,
    53.647430617273));
#562 = CARTESIAN_POINT('',(-13.48317855641,-3.576998446787,
    53.505714256511));
#563 = CARTESIAN_POINT('',(-13.49164533705,-3.711533952673,
    53.36006837382));
#564 = CARTESIAN_POINT('',(-13.50238636169,-3.837507269153,
    53.210996669518));
#565 = CARTESIAN_POINT('',(-13.52801198508,-4.067279934766,
    52.913904881228));
#566 = CARTESIAN_POINT('',(-13.54267863732,-4.171817174674,
    52.766183910873));
#567 = CARTESIAN_POINT('',(-13.55958956127,-4.268908680095,
    52.616137340531));
#568 = CARTESIAN_POINT('',(-13.57880565046,-4.358718744005,
    52.464113073128));
#569 = CARTESIAN_POINT('',(-13.60036442204,-4.441407675734,
    52.310426981821));
#570 = CARTESIAN_POINT('',(-13.62428237764,-4.517133022983,
    52.155363797437));
#571 = CARTESIAN_POINT('',(-13.65055821123,-4.586048560192,
    51.99917739799));
#572 = CARTESIAN_POINT('',(-13.74894464433,-4.800062819286,
    51.459137316537));
#573 = CARTESIAN_POINT('',(-13.8325785537,-4.91210112769,51.071147394995
    ));
#574 = CARTESIAN_POINT('',(-13.92986614814,-4.986758537449,
    50.681108389063));
#575 = CARTESIAN_POINT('',(-14.04004318752,-5.025739238606,
    50.291503409287));
#576 = CARTESIAN_POINT('',(-14.16193246601,-5.030486328839,
    49.904392133845));
#577 = CARTESIAN_POINT('',(-14.29413331663,-5.002035958576,
    49.52146572256));
#578 = CARTESIAN_POINT('',(-14.43515979833,-4.941018573772,
    49.144097410032));
#579 = CARTESIAN_POINT('',(-14.66171869069,-4.797775925621,
    48.57804972813));
#580 = CARTESIAN_POINT('',(-14.74191357358,-4.739258212002,
    48.384632001068));
#581 = CARTESIAN_POINT('',(-14.82389995001,-4.671633977223,
    48.193297532187));
#582 = CARTESIAN_POINT('',(-14.90743508997,-4.59483292216,
    48.004244484077));
#583 = CARTESIAN_POINT('',(-14.99225712975,-4.508738341624,
    47.817695319884));
#584 = CARTESIAN_POINT('',(-15.07808385566,-4.413181635664,
    47.63389798027));
#585 = CARTESIAN_POINT('',(-15.16461048936,-4.307925555086,
    47.453129431596));
#586 = CARTESIAN_POINT('',(-15.33213885338,-4.085657056709,
    47.111063032697));
#587 = CARTESIAN_POINT('',(-15.41306021234,-3.970077296311,
    46.949360213748));
#588 = CARTESIAN_POINT('',(-15.49402307524,-3.84561648665,
    46.790803802135));
#589 = CARTESIAN_POINT('',(-15.57472791843,-3.711957009882,
    46.635702542647));
#590 = CARTESIAN_POINT('',(-15.6548165837,-3.568745392955,
    46.484461198198));
#591 = CARTESIAN_POINT('',(-15.73386859433,-3.41559468675,
    46.337578454345));
#592 = CARTESIAN_POINT('',(-15.81139491291,-3.252067111457,
    46.195653040468));
#593 = CARTESIAN_POINT('',(-15.92970424501,-2.978442455584,
    45.981951313087));
#594 = CARTESIAN_POINT('',(-15.97189653303,-2.875762266374,
    45.906350164654));
#595 = CARTESIAN_POINT('',(-16.01329439384,-2.769482429498,
    45.832737332023));
#596 = CARTESIAN_POINT('',(-16.05377441683,-2.659518797814,
    45.761274754752));
#597 = CARTESIAN_POINT('',(-16.09319663915,-2.545798816968,
    45.692150350647));
#598 = CARTESIAN_POINT('',(-16.13140525442,-2.428264057903,
    45.625576505007));
#599 = CARTESIAN_POINT('',(-16.1682293214,-2.306872749367,45.56178855987
    ));
#600 = CARTESIAN_POINT('',(-16.22942073036,-2.089438082395,
    45.456351676653));
#601 = CARTESIAN_POINT('',(-16.25450593555,-1.995181912272,
    45.413310965555));
#602 = CARTESIAN_POINT('',(-16.27866478967,-1.898829922491,
    45.372024556251));
#603 = CARTESIAN_POINT('',(-16.30181629176,-1.800392133409,
    45.332606293308));
#604 = CARTESIAN_POINT('',(-16.32387442338,-1.699895062961,
    45.295177957323));
#605 = CARTESIAN_POINT('',(-16.34474983356,-1.597384326305,
    45.259866742676));
#606 = CARTESIAN_POINT('',(-16.36435152366,-1.492927235473,
    45.226802735281));
#607 = CARTESIAN_POINT('',(-16.39186258849,-1.332552697932,
    45.180511479823));
#608 = CARTESIAN_POINT('',(-16.40078361369,-1.278011244859,
    45.165521654081));
#609 = CARTESIAN_POINT('',(-16.40933960693,-1.223003855224,
    45.151164155233));
#610 = CARTESIAN_POINT('',(-16.41751860854,-1.167545137896,
    45.13745619813));
#611 = CARTESIAN_POINT('',(-16.42530881874,-1.111651609345,
    45.12441479661));
#612 = CARTESIAN_POINT('',(-16.43269871635,-1.055341807803,
    45.112056589772));
#613 = CARTESIAN_POINT('',(-16.43967717735,-0.998636407426,
    45.100397668238));
#614 = CARTESIAN_POINT('',(-16.45933048448,-0.827540964245,
    45.067591475098));
#615 = CARTESIAN_POINT('',(-16.47074510128,-0.712020378428,
    45.048578275886));
#616 = CARTESIAN_POINT('',(-16.48039015824,-0.595197624028,
    45.03254069035));
#617 = CARTESIAN_POINT('',(-16.48819006322,-0.477293206416,
    45.01958860902));
#618 = CARTESIAN_POINT('',(-16.49408385341,-0.358547980463,
    45.009810671105));
#619 = CARTESIAN_POINT('',(-16.49802813121,-0.239224043691,
    45.003270010201));
#620 = CARTESIAN_POINT('',(-16.5,-0.119605629437,45.));
#621 = CARTESIAN_POINT('',(-16.5,0.119605629437,45.));
#622 = CARTESIAN_POINT('',(-16.49802813121,0.239224043692,
    45.003270010201));
#623 = CARTESIAN_POINT('',(-16.49408385341,0.358547980463,
    45.009810671105));
#624 = CARTESIAN_POINT('',(-16.48819006322,0.477293206416,45.01958860902
    ));
#625 = CARTESIAN_POINT('',(-16.48039015824,0.595197624028,45.03254069035
    ));
#626 = CARTESIAN_POINT('',(-16.47074510128,0.712020378428,
    45.048578275886));
#627 = CARTESIAN_POINT('',(-16.45933048448,0.827540964245,
    45.067591475098));
#628 = CARTESIAN_POINT('',(-16.43967717735,0.998636407426,
    45.100397668238));
#629 = CARTESIAN_POINT('',(-16.43269871635,1.055341807803,
    45.112056589772));
#630 = CARTESIAN_POINT('',(-16.42530881874,1.111651609345,45.12441479661
    ));
#631 = CARTESIAN_POINT('',(-16.41751860854,1.167545137896,45.13745619813
    ));
#632 = CARTESIAN_POINT('',(-16.40933960693,1.223003855224,
    45.151164155233));
#633 = CARTESIAN_POINT('',(-16.40078361369,1.278011244859,
    45.165521654081));
#634 = CARTESIAN_POINT('',(-16.39186258849,1.332552697932,
    45.180511479823));
#635 = CARTESIAN_POINT('',(-16.36435152366,1.492927235473,
    45.226802735281));
#636 = CARTESIAN_POINT('',(-16.34474983356,1.597384326305,
    45.259866742676));
#637 = CARTESIAN_POINT('',(-16.32387442338,1.699895062961,
    45.295177957323));
#638 = CARTESIAN_POINT('',(-16.30181629176,1.80039213341,45.332606293308
    ));
#639 = CARTESIAN_POINT('',(-16.27866478967,1.898829922491,
    45.372024556251));
#640 = CARTESIAN_POINT('',(-16.25450593555,1.995181912272,
    45.413310965555));
#641 = CARTESIAN_POINT('',(-16.22942073036,2.089438082395,
    45.456351676653));
#642 = CARTESIAN_POINT('',(-16.1682293214,2.306872749367,45.56178855987)
  );
#643 = CARTESIAN_POINT('',(-16.13140525442,2.428264057903,
    45.625576505007));
#644 = CARTESIAN_POINT('',(-16.09319663915,2.545798816968,
    45.692150350647));
#645 = CARTESIAN_POINT('',(-16.05377441683,2.659518797814,
    45.761274754752));
#646 = CARTESIAN_POINT('',(-16.01329439384,2.769482429498,
    45.832737332023));
#647 = CARTESIAN_POINT('',(-15.97189653303,2.875762266375,
    45.906350164655));
#648 = CARTESIAN_POINT('',(-15.92970424501,2.978442455584,
    45.981951313087));
#649 = CARTESIAN_POINT('',(-15.81215304769,3.250313704815,
    46.194283624299));
#650 = CARTESIAN_POINT('',(-15.73542639224,3.412308154491,
    46.334726854233));
#651 = CARTESIAN_POINT('',(-15.65719848188,3.564125562625,
    46.480036061308));
#652 = CARTESIAN_POINT('',(-15.57794585876,3.706195581758,
    46.629627173258));
#653 = CARTESIAN_POINT('',(-15.49807719187,3.838892676205,46.78301529031
    ));
#654 = CARTESIAN_POINT('',(-15.41794102264,3.962558929199,
    46.939806121168));
#655 = CARTESIAN_POINT('',(-15.3378309025,4.077508488873,47.099695565499
    ));
#656 = CARTESIAN_POINT('',(-15.17110995001,4.299903023964,
    47.439602087467));
#657 = CARTESIAN_POINT('',(-15.08458174182,4.405750777883,
    47.620083199314));
#658 = CARTESIAN_POINT('',(-14.99873520346,4.501893979915,
    47.803606551759));
#659 = CARTESIAN_POINT('',(-14.9138760927,4.588572640316,47.989893475486
    ));
#660 = CARTESIAN_POINT('',(-14.83028730477,4.665957943897,
    48.178694862202));
#661 = CARTESIAN_POINT('',(-14.74823115054,4.734169128368,
    48.369787579328));
#662 = CARTESIAN_POINT('',(-14.66795062741,4.793279011692,
    48.562973295729));
#663 = CARTESIAN_POINT('',(-14.44026052209,4.938795191219,
    49.130465196311));
#664 = CARTESIAN_POINT('',(-14.29823141414,5.001141945124,
    49.509608747832));
#665 = CARTESIAN_POINT('',(-14.16508023398,5.030600160748,
    49.894405051703));
#666 = CARTESIAN_POINT('',(-14.04231882346,5.026538147273,
    50.283463461433));
#667 = CARTESIAN_POINT('',(-13.93137315802,4.98791080899,50.675071262765
    ));
#668 = CARTESIAN_POINT('',(-13.83344246739,4.913256208362,
    51.067141857174));
#669 = CARTESIAN_POINT('',(-13.7493051742,4.80084705885,51.457158379248)
  );
#670 = CARTESIAN_POINT('',(-13.65055821123,4.586048560192,
    51.999177397991));
#671 = CARTESIAN_POINT('',(-13.62428237764,4.517133022982,
    52.155363797438));
#672 = CARTESIAN_POINT('',(-13.60036442204,4.441407675733,
    52.310426981822));
#673 = CARTESIAN_POINT('',(-13.57880565046,4.358718744004,
    52.464113073128));
#674 = CARTESIAN_POINT('',(-13.55958956127,4.268908680094,
    52.616137340531));
#675 = CARTESIAN_POINT('',(-13.54267863732,4.171817174673,
    52.766183910873));
#676 = CARTESIAN_POINT('',(-13.52801198508,4.067279934766,
    52.913904881228));
#677 = CARTESIAN_POINT('',(-13.50238636169,3.837507269152,
    53.210996669519));
#678 = CARTESIAN_POINT('',(-13.49164533705,3.711533952674,53.36006837382
    ));
#679 = CARTESIAN_POINT('',(-13.48317855641,3.576998446787,
    53.505714256512));
#680 = CARTESIAN_POINT('',(-13.47685961145,3.433710909509,
    53.647430617274));
#681 = CARTESIAN_POINT('',(-13.47252946818,3.281510665085,53.78463538083
    ));
#682 = CARTESIAN_POINT('',(-13.46999269723,3.120276348252,
    53.916672767477));
#683 = CARTESIAN_POINT('',(-13.46901834196,2.949934016408,
    54.042816998739));
#684 = CARTESIAN_POINT('',(-13.46955261316,2.656778422245,
    54.237945092575));
#685 = CARTESIAN_POINT('',(-13.47028198896,2.539447106607,
    54.310921467725));
#686 = CARTESIAN_POINT('',(-13.47146697303,2.418474805759,
    54.380997813633));
#687 = CARTESIAN_POINT('',(-13.47303604041,2.293891075125,
    54.447949544607));
#688 = CARTESIAN_POINT('',(-13.47491291315,2.165752959039,54.5115369929)
  );
#689 = CARTESIAN_POINT('',(-13.47701761565,2.034149471174,
    54.571509655141));
#690 = CARTESIAN_POINT('',(-13.47926839216,1.899207098943,
    54.627611531514));
#691 = CARTESIAN_POINT('',(-13.48497772222,1.558754654519,
    54.755735974889));
#692 = CARTESIAN_POINT('',(-13.48851337467,1.349481175564,
    54.823077935801));
#693 = CARTESIAN_POINT('',(-13.49193467801,1.133976964059,
    54.880724132835));
#694 = CARTESIAN_POINT('',(-13.49498902547,0.913109510112,
    54.927858132536));
#695 = CARTESIAN_POINT('',(-13.49745083357,0.687925706886,54.96377606614
    ));
#696 = CARTESIAN_POINT('',(-13.49915070235,0.459666569974,54.98793071086
    ));
#697 = CARTESIAN_POINT('',(-13.5,0.229789013217,55.));
#698 = CARTESIAN_POINT('',(-13.5,8.881784197001E-16,55.));
#699 = PCURVE('',#32,#700);
#700 = DEFINITIONAL_REPRESENTATION('',(#701),#858);
#701 = B_SPLINE_CURVE_WITH_KNOTS('',8,(#702,#703,#704,#705,#706,#707,
    #708,#709,#710,#711,#712,#713,#714,#715,#716,#717,#718,#719,#720,
    #721,#722,#723,#724,#725,#726,#727,#728,#729,#730,#731,#732,#733,
    #734,#735,#736,#737,#738,#739,#740,#741,#742,#743,#744,#745,#746,
    #747,#748,#749,#750,#751,#752,#753,#754,#755,#756,#757,#758,#759,
    #760,#761,#762,#763,#764,#765,#766,#767,#768,#769,#770,#771,#772,
    #773,#774,#775,#776,#777,#778,#779,#780,#781,#782,#783,#784,#785,
    #786,#787,#788,#789,#790,#791,#792,#793,#794,#795,#796,#797,#798,
    #799,#800,#801,#802,#803,#804,#805,#806,#807,#808,#809,#810,#811,
    #812,#813,#814,#815,#816,#817,#818,#819,#820,#821,#822,#823,#824,
    #825,#826,#827,#828,#829,#830,#831,#832,#833,#834,#835,#836,#837,
    #838,#839,#840,#841,#842,#843,#844,#845,#846,#847,#848,#849,#850,
    #851,#852,#853,#854,#855,#856,#857),.UNSPECIFIED.,.T.,.F.,(9,7,7,7,7
    ,7,7,7,7,7,7,7,7,7,7,7,7,7,7,7,7,7,9),(0.,4.618395016406E-02,
    7.770792564707E-02,0.127473877729,0.174928244473,0.290614537172,
    0.351568485294,0.408128771668,0.440282778437,0.463939191212,
    0.475969174094,0.499999889711,0.524030605328,0.53606058821,
    0.559717000984,0.591871007753,0.647862806502,0.70878806189,
    0.82507167789,0.872525843165,0.922291583965,0.953815425613,1.),
  .UNSPECIFIED.);
#702 = CARTESIAN_POINT('',(-3.14159265359,-55.));
#703 = CARTESIAN_POINT('',(-3.158615003543,-55.));
#704 = CARTESIAN_POINT('',(-3.175643129704,-54.98792936841));
#705 = CARTESIAN_POINT('',(-3.192540122541,-54.96377402355));
#706 = CARTESIAN_POINT('',(-3.20918771703,-54.92785673027));
#707 = CARTESIAN_POINT('',(-3.225484525234,-54.88072372596));
#708 = CARTESIAN_POINT('',(-3.24134486656,-54.82307749857));
#709 = CARTESIAN_POINT('',(-3.256697919071,-54.75573462239));
#710 = CARTESIAN_POINT('',(-3.281581503252,-54.62761153151));
#711 = CARTESIAN_POINT('',(-3.291417933869,-54.57150965514));
#712 = CARTESIAN_POINT('',(-3.300982079093,-54.5115369929));
#713 = CARTESIAN_POINT('',(-3.310263417123,-54.4479495446));
#714 = CARTESIAN_POINT('',(-3.319254527482,-54.38099781363));
#715 = CARTESIAN_POINT('',(-3.327950651159,-54.31092146772));
#716 = CARTESIAN_POINT('',(-3.336349315737,-54.23794509257));
#717 = CARTESIAN_POINT('',(-3.357238372389,-54.04281699873));
#718 = CARTESIAN_POINT('',(-3.369281262088,-53.91667276747));
#719 = CARTESIAN_POINT('',(-3.380579822907,-53.78463538082));
#720 = CARTESIAN_POINT('',(-3.391140542152,-53.64743061727));
#721 = CARTESIAN_POINT('',(-3.400974596064,-53.50571425651));
#722 = CARTESIAN_POINT('',(-3.410097009391,-53.36006837382));
#723 = CARTESIAN_POINT('',(-3.418525644636,-53.21099666951));
#724 = CARTESIAN_POINT('',(-3.43367421318,-52.91390488122));
#725 = CARTESIAN_POINT('',(-3.440453993742,-52.76618391087));
#726 = CARTESIAN_POINT('',(-3.446635856079,-52.61613734053));
#727 = CARTESIAN_POINT('',(-3.452236327109,-52.46411307312));
#728 = CARTESIAN_POINT('',(-3.457272112051,-52.31042698182));
#729 = CARTESIAN_POINT('',(-3.461760075198,-52.15536379743));
#730 = CARTESIAN_POINT('',(-3.465717056615,-51.99917739799));
#731 = CARTESIAN_POINT('',(-3.477551721443,-51.45913731653));
#732 = CARTESIAN_POINT('',(-3.482879256928,-51.07114739499));
#733 = CARTESIAN_POINT('',(-3.48539523377,-50.68110838906));
#734 = CARTESIAN_POINT('',(-3.485314645038,-50.29150340928));
#735 = CARTESIAN_POINT('',(-3.482836393559,-49.90439213384));
#736 = CARTESIAN_POINT('',(-3.478127064861,-49.52146572256));
#737 = CARTESIAN_POINT('',(-3.471318720455,-49.14409741003));
#738 = CARTESIAN_POINT('',(-3.457823803325,-48.57804972813));
#739 = CARTESIAN_POINT('',(-3.452605084395,-48.38463200106));
#740 = CARTESIAN_POINT('',(-3.446835586974,-48.19329753218));
#741 = CARTESIAN_POINT('',(-3.440522910444,-48.00424448407));
#742 = CARTESIAN_POINT('',(-3.433671396033,-47.81769531988));
#743 = CARTESIAN_POINT('',(-3.426281759533,-47.63389798027));
#744 = CARTESIAN_POINT('',(-3.418350018388,-47.45312943159));
#745 = CARTESIAN_POINT('',(-3.401992970732,-47.11106303269));
#746 = CARTESIAN_POINT('',(-3.393647278032,-46.94936021374));
#747 = CARTESIAN_POINT('',(-3.384819096213,-46.79080380213));
#748 = CARTESIAN_POINT('',(-3.375496802986,-46.63570254264));
#749 = CARTESIAN_POINT('',(-3.365666587575,-46.48446119819));
#750 = CARTESIAN_POINT('',(-3.355312291865,-46.33757845434));
#751 = CARTESIAN_POINT('',(-3.344413950316,-46.19565304046));
#752 = CARTESIAN_POINT('',(-3.32642309482,-45.98195131308));
#753 = CARTESIAN_POINT('',(-3.319719169673,-45.90635016465));
#754 = CARTESIAN_POINT('',(-3.312827329487,-45.83273733202));
#755 = CARTESIAN_POINT('',(-3.305743420531,-45.76127475475));
#756 = CARTESIAN_POINT('',(-3.298463872238,-45.69215035064));
#757 = CARTESIAN_POINT('',(-3.290985757751,-45.625576505));
#758 = CARTESIAN_POINT('',(-3.283306854469,-45.56178855987));
#759 = CARTESIAN_POINT('',(-3.269627368614,-45.45635167665));
#760 = CARTESIAN_POINT('',(-3.26372004692,-45.41331096555));
#761 = CARTESIAN_POINT('',(-3.257703475027,-45.37202455625));
#762 = CARTESIAN_POINT('',(-3.25157812054,-45.3326062933));
#763 = CARTESIAN_POINT('',(-3.245345310473,-45.29517795732));
#764 = CARTESIAN_POINT('',(-3.23900735857,-45.25986674267));
#765 = CARTESIAN_POINT('',(-3.232567692619,-45.22680273528));
#766 = CARTESIAN_POINT('',(-3.222706871715,-45.18051147982));
#767 = CARTESIAN_POINT('',(-3.219357720597,-45.16552165408));
#768 = CARTESIAN_POINT('',(-3.215984190291,-45.15116415523));
#769 = CARTESIAN_POINT('',(-3.212587035942,-45.13745619813));
#770 = CARTESIAN_POINT('',(-3.209167112725,-45.12441479661));
#771 = CARTESIAN_POINT('',(-3.205725382603,-45.11205658977));
#772 = CARTESIAN_POINT('',(-3.202262921083,-45.10039766823));
#773 = CARTESIAN_POINT('',(-3.191825396024,-45.06759147509));
#774 = CARTESIAN_POINT('',(-3.184790926193,-45.04857827588));
#775 = CARTESIAN_POINT('',(-3.177688188408,-45.03254069035));
#776 = CARTESIAN_POINT('',(-3.170528739294,-45.01958860902));
#777 = CARTESIAN_POINT('',(-3.163325139551,-45.0098106711));
#778 = CARTESIAN_POINT('',(-3.156091075332,-45.0032700102));
#779 = CARTESIAN_POINT('',(-3.148841479616,-45.));
#780 = CARTESIAN_POINT('',(-3.134343827563,-45.));
#781 = CARTESIAN_POINT('',(-3.127094231848,-45.0032700102));
#782 = CARTESIAN_POINT('',(-3.119860167628,-45.0098106711));
#783 = CARTESIAN_POINT('',(-3.112656567885,-45.01958860902));
#784 = CARTESIAN_POINT('',(-3.105497118771,-45.03254069035));
#785 = CARTESIAN_POINT('',(-3.098394380987,-45.04857827588));
#786 = CARTESIAN_POINT('',(-3.091359911156,-45.06759147509));
#787 = CARTESIAN_POINT('',(-3.080922386096,-45.10039766823));
#788 = CARTESIAN_POINT('',(-3.077459924577,-45.11205658977));
#789 = CARTESIAN_POINT('',(-3.074018194454,-45.12441479661));
#790 = CARTESIAN_POINT('',(-3.070598271237,-45.13745619813));
#791 = CARTESIAN_POINT('',(-3.067201116889,-45.15116415523));
#792 = CARTESIAN_POINT('',(-3.063827586583,-45.16552165408));
#793 = CARTESIAN_POINT('',(-3.060478435465,-45.18051147982));
#794 = CARTESIAN_POINT('',(-3.050617614561,-45.22680273528));
#795 = CARTESIAN_POINT('',(-3.04417794861,-45.25986674267));
#796 = CARTESIAN_POINT('',(-3.037839996707,-45.29517795732));
#797 = CARTESIAN_POINT('',(-3.03160718664,-45.3326062933));
#798 = CARTESIAN_POINT('',(-3.025481832152,-45.37202455625));
#799 = CARTESIAN_POINT('',(-3.019465260259,-45.41331096555));
#800 = CARTESIAN_POINT('',(-3.013557938566,-45.45635167665));
#801 = CARTESIAN_POINT('',(-2.999878452711,-45.56178855987));
#802 = CARTESIAN_POINT('',(-2.992199549429,-45.625576505));
#803 = CARTESIAN_POINT('',(-2.984721434942,-45.69215035064));
#804 = CARTESIAN_POINT('',(-2.977441886649,-45.76127475475));
#805 = CARTESIAN_POINT('',(-2.970357977693,-45.83273733202));
#806 = CARTESIAN_POINT('',(-2.963466137506,-45.90635016465));
#807 = CARTESIAN_POINT('',(-2.956762212359,-45.98195131308));
#808 = CARTESIAN_POINT('',(-2.938886643571,-46.19428362429));
#809 = CARTESIAN_POINT('',(-2.928092035794,-46.33472685423));
#810 = CARTESIAN_POINT('',(-2.917831005987,-46.4800360613));
#811 = CARTESIAN_POINT('',(-2.908083878597,-46.62962717325));
#812 = CARTESIAN_POINT('',(-2.898835020401,-46.7830152903));
#813 = CARTESIAN_POINT('',(-2.890071071598,-46.93980612116));
#814 = CARTESIAN_POINT('',(-2.881780386678,-47.09969556549));
#815 = CARTESIAN_POINT('',(-2.865437370107,-47.43960208746));
#816 = CARTESIAN_POINT('',(-2.85747361857,-47.62008319931));
#817 = CARTESIAN_POINT('',(-2.850051746333,-47.80360655175));
#818 = CARTESIAN_POINT('',(-2.843167568867,-47.98989347548));
#819 = CARTESIAN_POINT('',(-2.836821608239,-48.1786948622));
#820 = CARTESIAN_POINT('',(-2.831018011457,-48.36978757932));
#821 = CARTESIAN_POINT('',(-2.825764180174,-48.56297329572));
#822 = CARTESIAN_POINT('',(-2.812113792403,-49.13046519631));
#823 = CARTESIAN_POINT('',(-2.805204954529,-49.50960874783));
#824 = CARTESIAN_POINT('',(-2.800413460707,-49.8944050517));
#825 = CARTESIAN_POINT('',(-2.797872724604,-50.28346346142));
#826 = CARTESIAN_POINT('',(-2.797751376211,-50.67507126277));
#827 = CARTESIAN_POINT('',(-2.800251170123,-51.06714185717));
#828 = CARTESIAN_POINT('',(-2.805590218475,-51.45715837924));
#829 = CARTESIAN_POINT('',(-2.817468250565,-51.99917739799));
#830 = CARTESIAN_POINT('',(-2.821425231981,-52.15536379743));
#831 = CARTESIAN_POINT('',(-2.825913195129,-52.31042698182));
#832 = CARTESIAN_POINT('',(-2.830948980071,-52.46411307312));
#833 = CARTESIAN_POINT('',(-2.8365494511,-52.61613734053));
#834 = CARTESIAN_POINT('',(-2.842731313437,-52.76618391087));
#835 = CARTESIAN_POINT('',(-2.849511094,-52.91390488122));
#836 = CARTESIAN_POINT('',(-2.864659662543,-53.21099666951));
#837 = CARTESIAN_POINT('',(-2.873088297788,-53.36006837382));
#838 = CARTESIAN_POINT('',(-2.882210711116,-53.50571425651));
#839 = CARTESIAN_POINT('',(-2.892044765027,-53.64743061727));
#840 = CARTESIAN_POINT('',(-2.902605484273,-53.78463538083));
#841 = CARTESIAN_POINT('',(-2.913904045091,-53.91667276747));
#842 = CARTESIAN_POINT('',(-2.925946934791,-54.04281699873));
#843 = CARTESIAN_POINT('',(-2.946835991443,-54.23794509257));
#844 = CARTESIAN_POINT('',(-2.955234656021,-54.31092146772));
#845 = CARTESIAN_POINT('',(-2.963930779698,-54.38099781363));
#846 = CARTESIAN_POINT('',(-2.972921890056,-54.4479495446));
#847 = CARTESIAN_POINT('',(-2.982203228086,-54.5115369929));
#848 = CARTESIAN_POINT('',(-2.991767373311,-54.57150965514));
#849 = CARTESIAN_POINT('',(-3.001603803928,-54.62761153151));
#850 = CARTESIAN_POINT('',(-3.026487650785,-54.75573597488));
#851 = CARTESIAN_POINT('',(-3.041840605427,-54.8230779358));
#852 = CARTESIAN_POINT('',(-3.057700907696,-54.88072413283));
#853 = CARTESIAN_POINT('',(-3.073997928485,-54.92785813253));
#854 = CARTESIAN_POINT('',(-3.090645942125,-54.96377606613));
#855 = CARTESIAN_POINT('',(-3.107543277371,-54.98793071086));
#856 = CARTESIAN_POINT('',(-3.124571245203,-55.));
#857 = CARTESIAN_POINT('',(-3.14159265359,-55.));
#858 = ( GEOMETRIC_REPRESENTATION_CONTEXT(2) 
PARAMETRIC_REPRESENTATION_CONTEXT() REPRESENTATION_CONTEXT('2D SPACE',''
  ) );
#859 = PCURVE('',#186,#860);
#860 = DEFINITIONAL_REPRESENTATION('',(#861),#1018);
#861 = B_SPLINE_CURVE_WITH_KNOTS('',8,(#862,#863,#864,#865,#866,#867,
    #868,#869,#870,#871,#872,#873,#874,#875,#876,#877,#878,#879,#880,
    #881,#882,#883,#884,#885,#886,#887,#888,#889,#890,#891,#892,#893,
    #894,#895,#896,#897,#898,#899,#900,#901,#902,#903,#904,#905,#906,
    #907,#908,#909,#910,#911,#912,#913,#914,#915,#916,#917,#918,#919,
    #920,#921,#922,#923,#924,#925,#926,#927,#928,#929,#930,#931,#932,
    #933,#934,#935,#936,#937,#938,#939,#940,#941,#942,#943,#944,#945,
    #946,#947,#948,#949,#950,#951,#952,#953,#954,#955,#956,#957,#958,
    #959,#960,#961,#962,#963,#964,#965,#966,#967,#968,#969,#970,#971,
    #972,#973,#974,#975,#976,#977,#978,#979,#980,#981,#982,#983,#984,
    #985,#986,#987,#988,#989,#990,#991,#992,#993,#994,#995,#996,#997,
    #998,#999,#1000,#1001,#1002,#1003,#1004,#1005,#1006,#1007,#1008,
    #1009,#1010,#1011,#1012,#1013,#1014,#1015,#1016,#1017),
  .UNSPECIFIED.,.F.,.F.,(9,7,7,7,7,7,7,7,7,7,7,7,7,7,7,7,7,7,7,7,7,7,9),
  (0.,4.618395016406E-02,7.770792564707E-02,0.127473877729,
    0.174928244473,0.290614537172,0.351568485294,0.408128771668,
    0.440282778437,0.463939191212,0.475969174094,0.499999889711,
    0.524030605328,0.53606058821,0.559717000984,0.591871007753,
    0.647862806502,0.70878806189,0.82507167789,0.872525843165,
    0.922291583965,0.953815425613,1.),.UNSPECIFIED.);
#862 = CARTESIAN_POINT('',(0.,20.5));
#863 = CARTESIAN_POINT('',(4.596034487323E-02,20.5));
#864 = CARTESIAN_POINT('',(9.193627473375E-02,20.500849391053));
#865 = CARTESIAN_POINT('',(0.137735158374,20.502549312192));
#866 = CARTESIAN_POINT('',(0.183214956554,20.505011056182));
#867 = CARTESIAN_POINT('',(0.228263235263,20.508065335924));
#868 = CARTESIAN_POINT('',(0.272786124396,20.511486664398));
#869 = CARTESIAN_POINT('',(0.316702825079,20.515022338048));
#870 = CARTESIAN_POINT('',(0.389454717501,20.520731607832));
#871 = CARTESIAN_POINT('',(0.418665732142,20.522982384345));
#872 = CARTESIAN_POINT('',(0.447563622542,20.525087086847));
#873 = CARTESIAN_POINT('',(0.47614244874,20.526963959584));
#874 = CARTESIAN_POINT('',(0.504400099929,20.528533026963));
#875 = CARTESIAN_POINT('',(0.532337716462,20.529718011038));
#876 = CARTESIAN_POINT('',(0.55995945496,20.530447386834));
#877 = CARTESIAN_POINT('',(0.630391031797,20.53098165804));
#878 = CARTESIAN_POINT('',(0.672730627425,20.53000730277));
#879 = CARTESIAN_POINT('',(0.714329003951,20.527470531816));
#880 = CARTESIAN_POINT('',(0.75522176733,20.523140388543));
#881 = CARTESIAN_POINT('',(0.795444444061,20.516821443581));
#882 = CARTESIAN_POINT('',(0.835034274346,20.508354662949));
#883 = CARTESIAN_POINT('',(0.874031863322,20.497613638307));
#884 = CARTESIAN_POINT('',(0.94914750977,20.471988014917));
#885 = CARTESIAN_POINT('',(0.985308553198,20.457321362672));
#886 = CARTESIAN_POINT('',(1.021001556452,20.440410438725));
#887 = CARTESIAN_POINT('',(1.056258095967,20.421194349534));
#888 = CARTESIAN_POINT('',(1.091107262069,20.399635577953));
#889 = CARTESIAN_POINT('',(1.125576982259,20.375717622353));
#890 = CARTESIAN_POINT('',(1.159694994482,20.349441788764));
#891 = CARTESIAN_POINT('',(1.275875094787,20.251055355665));
#892 = CARTESIAN_POINT('',(1.356270299418,20.167421446296));
#893 = CARTESIAN_POINT('',(1.435143807336,20.070133851853));
#894 = CARTESIAN_POINT('',(1.512840601339,19.959956812476));
#895 = CARTESIAN_POINT('',(1.589686272698,19.838067533989));
#896 = CARTESIAN_POINT('',(1.666008427444,19.70586668337));
#897 = CARTESIAN_POINT('',(1.742169567746,19.564840201663));
#898 = CARTESIAN_POINT('',(1.858947722284,19.338281309307));
#899 = CARTESIAN_POINT('',(1.899320356326,19.258086426413));
#900 = CARTESIAN_POINT('',(1.939835411564,19.176100049984));
#901 = CARTESIAN_POINT('',(1.980559571753,19.092564910029));
#902 = CARTESIAN_POINT('',(2.021561122099,19.007742870247));
#903 = CARTESIAN_POINT('',(2.062913297327,18.921916144331));
#904 = CARTESIAN_POINT('',(2.104699172261,18.835389510636));
#905 = CARTESIAN_POINT('',(2.186286599387,18.667861146612));
#906 = CARTESIAN_POINT('',(2.225999980656,18.586939787651));
#907 = CARTESIAN_POINT('',(2.266245810465,18.505976924754));
#908 = CARTESIAN_POINT('',(2.307107783228,18.425272081564));
#909 = CARTESIAN_POINT('',(2.348670918565,18.345183416293));
#910 = CARTESIAN_POINT('',(2.391025221475,18.26613140567));
#911 = CARTESIAN_POINT('',(2.434272738447,18.188605087088));
#912 = CARTESIAN_POINT('',(2.503710157923,18.070295754981));
#913 = CARTESIAN_POINT('',(2.529201854339,18.028103466961));
#914 = CARTESIAN_POINT('',(2.555040443422,17.986705606155));
#915 = CARTESIAN_POINT('',(2.581246194633,17.946225583165));
#916 = CARTESIAN_POINT('',(2.607837525517,17.906803360843));
#917 = CARTESIAN_POINT('',(2.634831286694,17.868594745578));
#918 = CARTESIAN_POINT('',(2.662243046854,17.831770678595));
#919 = CARTESIAN_POINT('',(2.710573066818,17.770579269633));
#920 = CARTESIAN_POINT('',(2.731291177422,17.745494064448));
#921 = CARTESIAN_POINT('',(2.752246408398,17.721335210322));
#922 = CARTESIAN_POINT('',(2.773441424281,17.698183708236));
#923 = CARTESIAN_POINT('',(2.794876577564,17.676125576616));
#924 = CARTESIAN_POINT('',(2.816549630955,17.65525016644));
#925 = CARTESIAN_POINT('',(2.838455479636,17.635648476339));
#926 = CARTESIAN_POINT('',(2.871839830835,17.608137411507));
#927 = CARTESIAN_POINT('',(2.883151668318,17.599216386304));
#928 = CARTESIAN_POINT('',(2.894520136319,17.590660393062));
#929 = CARTESIAN_POINT('',(2.905943740605,17.582481391459));
#930 = CARTESIAN_POINT('',(2.91742072102,17.574691181252));
#931 = CARTESIAN_POINT('',(2.928949030149,17.567301283643));
#932 = CARTESIAN_POINT('',(2.940526311967,17.560322822641));
#933 = CARTESIAN_POINT('',(2.975368755616,17.540669515513));
#934 = CARTESIAN_POINT('',(2.998775647558,17.529254898718));
#935 = CARTESIAN_POINT('',(3.022345230369,17.519609841751));
#936 = CARTESIAN_POINT('',(3.046050520212,17.511809936774));
#937 = CARTESIAN_POINT('',(3.069862189767,17.505916146583));
#938 = CARTESIAN_POINT('',(3.09374788263,17.501971868789));
#939 = CARTESIAN_POINT('',(3.117671527702,17.5));
#940 = CARTESIAN_POINT('',(3.165513779477,17.5));
#941 = CARTESIAN_POINT('',(3.18943742455,17.501971868789));
#942 = CARTESIAN_POINT('',(3.213323117413,17.505916146583));
#943 = CARTESIAN_POINT('',(3.237134786968,17.511809936774));
#944 = CARTESIAN_POINT('',(3.26084007681,17.519609841751));
#945 = CARTESIAN_POINT('',(3.284409659622,17.529254898718));
#946 = CARTESIAN_POINT('',(3.307816551563,17.540669515513));
#947 = CARTESIAN_POINT('',(3.342658995212,17.560322822641));
#948 = CARTESIAN_POINT('',(3.354236277031,17.567301283643));
#949 = CARTESIAN_POINT('',(3.365764586159,17.574691181252));
#950 = CARTESIAN_POINT('',(3.377241566575,17.582481391459));
#951 = CARTESIAN_POINT('',(3.38866517086,17.590660393062));
#952 = CARTESIAN_POINT('',(3.400033638861,17.599216386304));
#953 = CARTESIAN_POINT('',(3.411345476345,17.608137411507));
#954 = CARTESIAN_POINT('',(3.444729827543,17.635648476339));
#955 = CARTESIAN_POINT('',(3.466635676224,17.65525016644));
#956 = CARTESIAN_POINT('',(3.488308729616,17.676125576616));
#957 = CARTESIAN_POINT('',(3.509743882899,17.698183708236));
#958 = CARTESIAN_POINT('',(3.530938898782,17.721335210322));
#959 = CARTESIAN_POINT('',(3.551894129757,17.745494064448));
#960 = CARTESIAN_POINT('',(3.572612240361,17.770579269633));
#961 = CARTESIAN_POINT('',(3.620942260326,17.831770678595));
#962 = CARTESIAN_POINT('',(3.648354020486,17.868594745578));
#963 = CARTESIAN_POINT('',(3.675347781663,17.906803360843));
#964 = CARTESIAN_POINT('',(3.701939112547,17.946225583165));
#965 = CARTESIAN_POINT('',(3.728144863758,17.986705606155));
#966 = CARTESIAN_POINT('',(3.753983452841,18.028103466961));
#967 = CARTESIAN_POINT('',(3.779475149256,18.070295754981));
#968 = CARTESIAN_POINT('',(3.848467608712,18.187846952307));
#969 = CARTESIAN_POINT('',(3.891291072888,18.26457360776));
#970 = CARTESIAN_POINT('',(3.933237383951,18.342801518113));
#971 = CARTESIAN_POINT('',(3.974406712895,18.422054141233));
#972 = CARTESIAN_POINT('',(4.014886122593,18.501922808121));
#973 = CARTESIAN_POINT('',(4.054757798515,18.582058977352));
#974 = CARTESIAN_POINT('',(4.094104157233,18.662169097499));
#975 = CARTESIAN_POINT('',(4.175343500636,18.828890049985));
#976 = CARTESIAN_POINT('',(4.217139388666,18.915418258179));
#977 = CARTESIAN_POINT('',(4.2584972052,19.001264796531));
#978 = CARTESIAN_POINT('',(4.29950027031,19.086123907297));
#979 = CARTESIAN_POINT('',(4.340222000462,19.169712695228));
#980 = CARTESIAN_POINT('',(4.380730833776,19.251768849456));
#981 = CARTESIAN_POINT('',(4.421093595839,19.332049372587));
#982 = CARTESIAN_POINT('',(4.538263901928,19.559739477903));
#983 = CARTESIAN_POINT('',(4.614813518507,19.701768585857));
#984 = CARTESIAN_POINT('',(4.691516601222,19.834919766012));
#985 = CARTESIAN_POINT('',(4.768741490756,19.957681176539));
#986 = CARTESIAN_POINT('',(4.846820836991,20.068626841972));
#987 = CARTESIAN_POINT('',(4.926085136683,20.166557532601));
#988 = CARTESIAN_POINT('',(5.006884478932,20.250694825793));
#989 = CARTESIAN_POINT('',(5.123490312697,20.349441788764));
#990 = CARTESIAN_POINT('',(5.157608324921,20.375717622353));
#991 = CARTESIAN_POINT('',(5.19207804511,20.399635577953));
#992 = CARTESIAN_POINT('',(5.226927211213,20.421194349534));
#993 = CARTESIAN_POINT('',(5.262183750727,20.440410438726));
#994 = CARTESIAN_POINT('',(5.297876753981,20.457321362672));
#995 = CARTESIAN_POINT('',(5.33403779741,20.471988014917));
#996 = CARTESIAN_POINT('',(5.409153443858,20.497613638307));
#997 = CARTESIAN_POINT('',(5.448151032834,20.508354662949));
#998 = CARTESIAN_POINT('',(5.487740863119,20.516821443581));
#999 = CARTESIAN_POINT('',(5.52796353985,20.523140388543));
#1000 = CARTESIAN_POINT('',(5.568856303229,20.527470531816));
#1001 = CARTESIAN_POINT('',(5.610454679755,20.53000730277));
#1002 = CARTESIAN_POINT('',(5.652794275382,20.53098165804));
#1003 = CARTESIAN_POINT('',(5.723225852219,20.530447386834));
#1004 = CARTESIAN_POINT('',(5.750847590718,20.529718011038));
#1005 = CARTESIAN_POINT('',(5.77878520725,20.528533026963));
#1006 = CARTESIAN_POINT('',(5.80704285844,20.526963959583));
#1007 = CARTESIAN_POINT('',(5.835621684637,20.525087086847));
#1008 = CARTESIAN_POINT('',(5.864519575038,20.522982384345));
#1009 = CARTESIAN_POINT('',(5.893730589679,20.520731607832));
#1010 = CARTESIAN_POINT('',(5.966483250085,20.51502227778));
#1011 = CARTESIAN_POINT('',(6.010399629979,20.511486625328));
#1012 = CARTESIAN_POINT('',(6.054922429177,20.508065321985));
#1013 = CARTESIAN_POINT('',(6.099971309927,20.505010974525));
#1014 = CARTESIAN_POINT('',(6.145452225777,20.50254916643));
#1015 = CARTESIAN_POINT('',(6.191252001236,20.500849297643));
#1016 = CARTESIAN_POINT('',(6.237227504536,20.5));
#1017 = CARTESIAN_POINT('',(6.28318530718,20.5));
#1018 = ( GEOMETRIC_REPRESENTATION_CONTEXT(2) 
PARAMETRIC_REPRESENTATION_CONTEXT() REPRESENTATION_CONTEXT('2D SPACE',''
  ) );
#1019 = ADVANCED_FACE('',(#1020),#186,.F.);
#1020 = FACE_BOUND('',#1021,.F.);
#1021 = EDGE_LOOP('',(#1022,#1023,#1044,#1045,#1046));
#1022 = ORIENTED_EDGE('',*,*,#308,.F.);
#1023 = ORIENTED_EDGE('',*,*,#1024,.F.);
#1024 = EDGE_CURVE('',#539,#22,#1025,.T.);
#1025 = SEAM_CURVE('',#1026,(#1030,#1037),.PCURVE_S1.);
#1026 = LINE('',#1027,#1028);
#1027 = CARTESIAN_POINT('',(-34.,1.224646799147E-15,55.));
#1028 = VECTOR('',#1029,1.);
#1029 = DIRECTION('',(1.,0.,0.));
#1030 = PCURVE('',#186,#1031);
#1031 = DEFINITIONAL_REPRESENTATION('',(#1032),#1036);
#1032 = LINE('',#1033,#1034);
#1033 = CARTESIAN_POINT('',(6.28318530718,-0.));
#1034 = VECTOR('',#1035,1.);
#1035 = DIRECTION('',(0.,1.));
#1036 = ( GEOMETRIC_REPRESENTATION_CONTEXT(2) 
PARAMETRIC_REPRESENTATION_CONTEXT() REPRESENTATION_CONTEXT('2D SPACE',''
  ) );
#1037 = PCURVE('',#186,#1038);
#1038 = DEFINITIONAL_REPRESENTATION('',(#1039),#1043);
#1039 = LINE('',#1040,#1041);
#1040 = CARTESIAN_POINT('',(0.,-0.));
#1041 = VECTOR('',#1042,1.);
#1042 = DIRECTION('',(0.,1.));
#1043 = ( GEOMETRIC_REPRESENTATION_CONTEXT(2) 
PARAMETRIC_REPRESENTATION_CONTEXT() REPRESENTATION_CONTEXT('2D SPACE',''
  ) );
#1044 = ORIENTED_EDGE('',*,*,#538,.T.);
#1045 = ORIENTED_EDGE('',*,*,#1024,.T.);
#1046 = ORIENTED_EDGE('',*,*,#52,.F.);
#1047 = ADVANCED_FACE('',(#1048),#295,.F.);
#1048 = FACE_BOUND('',#1049,.T.);
#1049 = EDGE_LOOP('',(#1050));
#1050 = ORIENTED_EDGE('',*,*,#280,.F.);
#1051 = ( GEOMETRIC_REPRESENTATION_CONTEXT(3) 
GLOBAL_UNCERTAINTY_ASSIGNED_CONTEXT((#1055)) 
GLOBAL_UNIT_ASSIGNED_CONTEXT((#1052,#1053,#1054)) REPRESENTATION_CONTEXT
('Context #1','3D Context with UNIT and UNCERTAINTY') );
#1052 = ( LENGTH_UNIT() NAMED_UNIT(*) SI_UNIT(.MILLI.,.METRE.) );
#1053 = ( NAMED_UNIT(*) PLANE_ANGLE_UNIT() SI_UNIT($,.RADIAN.) );
#1054 = ( NAMED_UNIT(*) SI_UNIT($,.STERADIAN.) SOLID_ANGLE_UNIT() );
#1055 = UNCERTAINTY_MEASURE_WITH_UNIT(LENGTH_MEASURE(1.E-07),#1052,
  'distance_accuracy_value','confusion accuracy');
#1056 = PRODUCT_RELATED_PRODUCT_CATEGORY('part',$,(#7));
ENDSEC;
END-ISO-10303-21;
