ISO-10303-21;
HEADER;
FILE_DESCRIPTION(('Open CASCADE Model'),'2;1');
FILE_NAME('Open CASCADE Shape Model','2026-08-24T11:09:06',('Author'),(
    'Open CASCADE'),'Open CASCADE STEP processor 7.8','Open CASCADE 7.8'
  ,'Unknown');
FILE_SCHEMA(('AUTOMOTIVE_DESIGN { 1 0 10303 214 1 1 1 1 }'));
ENDSEC;
DATA;
#1 = APPLICATION_PROTOCOL_DEFINITION('international standard',
  'automotive_design',2000,#2);
#2 = APPLICATION_CONTEXT(
  'core data for automotive mechanical design processes');
#3 = SHAPE_DEFINITION_REPRESENTATION(#4,#10);
#4 = PRODUCT_DEFINITION_SHAPE('','',#5);
#5 = PRODUCT_DEFINITION('design','',#6,#9);
#6 = PRODUCT_DEFINITION_FORMATION('','',#7);
#7 = PRODUCT('Open CASCADE STEP translator 7.8 2',
  'Open CASCADE STEP translator 7.8 2','',(#8));
#8 = PRODUCT_CONTEXT('',#2,'mechanical');
#9 = PRODUCT_DEFINITION_CONTEXT('part definition',#2,'design');
#10 = ADVANCED_BREP_SHAPE_REPRESENTATION('',(#11,#15),#839);
#11 = AXIS2_PLACEMENT_3D('',#12,#13,#14);
#12 = CARTESIAN_POINT('',(0.,0.,0.));
#13 = DIRECTION('',(0.,0.,1.));
#14 = DIRECTION('',(1.,0.,-0.));
#15 = MANIFOLD_SOLID_BREP('',#16);
#16 = CLOSED_SHELL('',(#17,#753,#800,#828,#832));
#17 = ADVANCED_FACE('',(#18,#425),#32,.T.);
#18 = FACE_BOUND('',#19,.T.);
#19 = EDGE_LOOP('',(#20,#50,#51,#83,#234,#257,#284,#285,#395));
#20 = ORIENTED_EDGE('',*,*,#21,.T.);
#21 = EDGE_CURVE('',#22,#24,#26,.T.);
#22 = VERTEX_POINT('',#23);
#23 = CARTESIAN_POINT('',(13.5,-1.588654526488E-15,55.));
#24 = VERTEX_POINT('',#25);
#25 = CARTESIAN_POINT('',(-6.917458834053E-16,1.694288763871E-31,100.));
#26 = SEAM_CURVE('',#27,(#31,#43),.PCURVE_S1.);
#27 = LINE('',#28,#29);
#28 = CARTESIAN_POINT('',(30.,-7.347880794884E-15,0.));
#29 = VECTOR('',#30,1.);
#30 = DIRECTION('',(-0.287347885566,7.037993366012E-17,0.957826285221));
#31 = PCURVE('',#32,#37);
#32 = CONICAL_SURFACE('',#33,30.,0.291456794478);
#33 = AXIS2_PLACEMENT_3D('',#34,#35,#36);
#34 = CARTESIAN_POINT('',(0.,0.,0.));
#35 = DIRECTION('',(-0.,-0.,-1.));
#36 = DIRECTION('',(1.,0.,-0.));
#37 = DEFINITIONAL_REPRESENTATION('',(#38),#42);
#38 = LINE('',#39,#40);
#39 = CARTESIAN_POINT('',(-6.28318530718,0.));
#40 = VECTOR('',#41,1.);
#41 = DIRECTION('',(-0.,-1.));
#42 = ( GEOMETRIC_REPRESENTATION_CONTEXT(2) 
PARAMETRIC_REPRESENTATION_CONTEXT() REPRESENTATION_CONTEXT('2D SPACE',''
  ) );
#43 = PCURVE('',#32,#44);
#44 = DEFINITIONAL_REPRESENTATION('',(#45),#49);
#45 = LINE('',#46,#47);
#46 = CARTESIAN_POINT('',(0.,-0.));
#47 = VECTOR('',#48,1.);
#48 = DIRECTION('',(-0.,-1.));
#49 = ( GEOMETRIC_REPRESENTATION_CONTEXT(2) 
PARAMETRIC_REPRESENTATION_CONTEXT() REPRESENTATION_CONTEXT('2D SPACE',''
  ) );
#50 = ORIENTED_EDGE('',*,*,#21,.F.);
#51 = ORIENTED_EDGE('',*,*,#52,.F.);
#52 = EDGE_CURVE('',#53,#22,#55,.T.);
#53 = VERTEX_POINT('',#54);
#54 = CARTESIAN_POINT('',(14.142135623731,5.,50.));
#55 = SURFACE_CURVE('',#56,(#61,#71),.PCURVE_S1.);
#56 = ELLIPSE('',#57,20.980091309931,14.151845295746);
#57 = AXIS2_PLACEMENT_3D('',#58,#59,#60);
#58 = CARTESIAN_POINT('',(0.,4.450549450549,50.549450549451));
#59 = DIRECTION('',(0.,-0.707106781187,-0.707106781187));
#60 = DIRECTION('',(-0.,0.707106781187,-0.707106781187));
#61 = PCURVE('',#32,#62);
#62 = DEFINITIONAL_REPRESENTATION('',(#63),#70);
#63 = B_SPLINE_CURVE_WITH_KNOTS('',5,(#64,#65,#66,#67,#68,#69),
  .UNSPECIFIED.,.F.,.F.,(6,6),(1.499996452039,1.87548898081),
  .PIECEWISE_BEZIER_KNOTS.);
#64 = CARTESIAN_POINT('',(-0.371524456419,-49.5));
#65 = CARTESIAN_POINT('',(-0.301373800619,-50.61130759992));
#66 = CARTESIAN_POINT('',(-0.229293383802,-51.73001366569));
#67 = CARTESIAN_POINT('',(-0.155125079718,-52.84306012224));
#68 = CARTESIAN_POINT('',(-7.87246248427E-02,-53.93721756462));
#69 = CARTESIAN_POINT('',(-1.973729821556E-16,-55.));
#70 = ( GEOMETRIC_REPRESENTATION_CONTEXT(2) 
PARAMETRIC_REPRESENTATION_CONTEXT() REPRESENTATION_CONTEXT('2D SPACE',''
  ) );
#71 = PCURVE('',#72,#77);
#72 = PLANE('',#73);
#73 = AXIS2_PLACEMENT_3D('',#74,#75,#76);
#74 = CARTESIAN_POINT('',(-34.,5.,50.));
#75 = DIRECTION('',(0.,-0.707106781187,-0.707106781187));
#76 = DIRECTION('',(0.,-0.707106781187,0.707106781187));
#77 = DEFINITIONAL_REPRESENTATION('',(#78),#82);
#78 = ELLIPSE('',#79,20.980091309931,14.151845295746);
#79 = AXIS2_PLACEMENT_2D('',#80,#81);
#80 = CARTESIAN_POINT('',(0.777040418886,-34.));
#81 = DIRECTION('',(-1.,0.));
#82 = ( GEOMETRIC_REPRESENTATION_CONTEXT(2) 
PARAMETRIC_REPRESENTATION_CONTEXT() REPRESENTATION_CONTEXT('2D SPACE',''
  ) );
#83 = ORIENTED_EDGE('',*,*,#84,.F.);
#84 = EDGE_CURVE('',#85,#53,#87,.T.);
#85 = VERTEX_POINT('',#86);
#86 = CARTESIAN_POINT('',(16.5,-4.041334437186E-15,45.));
#87 = SURFACE_CURVE('',#88,(#133,#181),.PCURVE_S1.);
#88 = B_SPLINE_CURVE_WITH_KNOTS('',8,(#89,#90,#91,#92,#93,#94,#95,#96,
    #97,#98,#99,#100,#101,#102,#103,#104,#105,#106,#107,#108,#109,#110,
    #111,#112,#113,#114,#115,#116,#117,#118,#119,#120,#121,#122,#123,
    #124,#125,#126,#127,#128,#129,#130,#131,#132),.UNSPECIFIED.,.F.,.F.,
  (9,7,7,7,7,7,9),(0.,0.139885649217,0.232149690737,0.358534783077,
    0.465582447364,0.816067439706,1.),.UNSPECIFIED.);
#89 = CARTESIAN_POINT('',(16.5,-4.217558716135E-15,45.));
#90 = CARTESIAN_POINT('',(16.5,0.178423314146,45.));
#91 = CARTESIAN_POINT('',(16.495611989055,0.356904400613,45.007276705826
    ));
#92 = CARTESIAN_POINT('',(16.486831144988,0.534371530266,45.021837621401
    ));
#93 = CARTESIAN_POINT('',(16.473777169745,0.709908863472,45.043506769543
    ));
#94 = CARTESIAN_POINT('',(16.45666138249,0.882739537905,45.071976547172)
  );
#95 = CARTESIAN_POINT('',(16.435759044114,1.052211518618,45.106849049971
    ));
#96 = CARTESIAN_POINT('',(16.411386913166,1.21778621039,45.147666866532)
  );
#97 = CARTESIAN_POINT('',(16.365747343883,1.485380900595,45.224449209979
    ));
#98 = CARTESIAN_POINT('',(16.346241048637,1.589885080732,45.257346346542
    ));
#99 = CARTESIAN_POINT('',(16.32545789763,1.692449671998,45.292494572226)
  );
#100 = CARTESIAN_POINT('',(16.303488768177,1.793006386564,
    45.329763946209));
#101 = CARTESIAN_POINT('',(16.280422965363,1.891508741735,
    45.369027308735));
#102 = CARTESIAN_POINT('',(16.256346522671,1.98792945219,45.410162823577
    ));
#103 = CARTESIAN_POINT('',(16.231340502604,2.082257822204,
    45.453056520497));
#104 = CARTESIAN_POINT('',(16.170054111458,2.300848360272,
    45.558627995737));
#105 = CARTESIAN_POINT('',(16.133028574816,2.423264824716,
    45.622748396034));
#106 = CARTESIAN_POINT('',(16.094592597422,2.541768555765,
    45.689702872634));
#107 = CARTESIAN_POINT('',(16.054921268996,2.656401543003,
    45.759250288661));
#108 = CARTESIAN_POINT('',(16.014174111642,2.76722309074,45.831173120243
    ));
#109 = CARTESIAN_POINT('',(15.972494332544,2.874307167708,
    45.905279040423));
#110 = CARTESIAN_POINT('',(15.930008076664,2.977739756755,
    45.981402503065));
#111 = CARTESIAN_POINT('',(15.850246668876,3.162211153635,
    46.125475251333));
#112 = CARTESIAN_POINT('',(15.813172123052,3.244247495398,
    46.192887262434));
#113 = CARTESIAN_POINT('',(15.775667859688,3.323779784675,
    46.261555626624));
#114 = CARTESIAN_POINT('',(15.7377964598,3.400860268692,46.331401326906)
  );
#115 = CARTESIAN_POINT('',(15.699615461764,3.475539201473,46.40235294723
    ));
#116 = CARTESIAN_POINT('',(15.661177555388,3.547865158269,
    46.474346557007));
#117 = CARTESIAN_POINT('',(15.622530775991,3.617885349974,
    46.547325595609));
#118 = CARTESIAN_POINT('',(15.456643990367,3.907501025934,
    46.863246548464));
#119 = CARTESIAN_POINT('',(15.327887204131,4.104976318365,
    47.115116366375));
#120 = CARTESIAN_POINT('',(15.198875821305,4.27992663348,47.375298981668
    ));
#121 = CARTESIAN_POINT('',(15.070802062218,4.433418764992,
    47.642584262554));
#122 = CARTESIAN_POINT('',(14.944705702416,4.566262657695,
    47.915967850883));
#123 = CARTESIAN_POINT('',(14.82147860498,4.679000008383,48.194654696638
    ));
#124 = CARTESIAN_POINT('',(14.701890039121,4.771977450435,
    48.478038496138));
#125 = CARTESIAN_POINT('',(14.526101238981,4.883722447938,
    48.916704839455));
#126 = CARTESIAN_POINT('',(14.466805956099,4.916745155852,
    49.068813403911));
#127 = CARTESIAN_POINT('',(14.40882378482,4.944339109901,49.221964387618
    ));
#128 = CARTESIAN_POINT('',(14.352259083958,4.966494843275,
    49.376065936615));
#129 = CARTESIAN_POINT('',(14.297213156598,4.983186492275,
    49.531022482737));
#130 = CARTESIAN_POINT('',(14.243783317392,4.994373113329,
    49.686734233657));
#131 = CARTESIAN_POINT('',(14.192061959868,5.,49.843096662923));
#132 = CARTESIAN_POINT('',(14.142135623731,5.,50.));
#133 = PCURVE('',#32,#134);
#134 = DEFINITIONAL_REPRESENTATION('',(#135),#180);
#135 = B_SPLINE_CURVE_WITH_KNOTS('',8,(#136,#137,#138,#139,#140,#141,
    #142,#143,#144,#145,#146,#147,#148,#149,#150,#151,#152,#153,#154,
    #155,#156,#157,#158,#159,#160,#161,#162,#163,#164,#165,#166,#167,
    #168,#169,#170,#171,#172,#173,#174,#175,#176,#177,#178,#179),
  .UNSPECIFIED.,.F.,.F.,(9,7,7,7,7,7,9),(0.,0.139885649217,
    0.232149690737,0.358534783077,0.465582447364,0.816067439706,1.),
  .UNSPECIFIED.);
#136 = CARTESIAN_POINT('',(0.,-45.));
#137 = CARTESIAN_POINT('',(-1.081353419067E-02,-45.));
#138 = CARTESIAN_POINT('',(-2.163056714463E-02,-45.00727670582));
#139 = CARTESIAN_POINT('',(-3.239380672548E-02,-45.0218376214));
#140 = CARTESIAN_POINT('',(-4.305539825093E-02,-45.04350676954));
#141 = CARTESIAN_POINT('',(-5.357515897829E-02,-45.07197654717));
#142 = CARTESIAN_POINT('',(-6.391925280624E-02,-45.10684904997));
#143 = CARTESIAN_POINT('',(-7.405930519301E-02,-45.14766686653));
#144 = CARTESIAN_POINT('',(-9.051002307521E-02,-45.22444920997));
#145 = CARTESIAN_POINT('',(-9.695145018498E-02,-45.25734634654));
#146 = CARTESIAN_POINT('',(-0.103291512328,-45.29249457222));
#147 = CARTESIAN_POINT('',(-0.109526730434,-45.3297639462));
#148 = CARTESIAN_POINT('',(-0.115654745667,-45.36902730873));
#149 = CARTESIAN_POINT('',(-0.12167419143,-45.41016282357));
#150 = CARTESIAN_POINT('',(-0.127584565377,-45.45305652049));
#151 = CARTESIAN_POINT('',(-0.141333159191,-45.55862799573));
#152 = CARTESIAN_POINT('',(-0.149075062638,-45.62274839603));
#153 = CARTESIAN_POINT('',(-0.156613252159,-45.68970287263));
#154 = CARTESIAN_POINT('',(-0.163949965428,-45.75925028866));
#155 = CARTESIAN_POINT('',(-0.171088173353,-45.83117312024));
#156 = CARTESIAN_POINT('',(-0.178031516029,-45.90527904042));
#157 = CARTESIAN_POINT('',(-0.184784238694,-45.98140250306));
#158 = CARTESIAN_POINT('',(-0.196913256212,-46.12547525133));
#159 = CARTESIAN_POINT('',(-0.202341577903,-46.19288726243));
#160 = CARTESIAN_POINT('',(-0.20763876426,-46.26155562662));
#161 = CARTESIAN_POINT('',(-0.212807283033,-46.3314013269));
#162 = CARTESIAN_POINT('',(-0.217849432841,-46.40235294723));
#163 = CARTESIAN_POINT('',(-0.222767377797,-46.474346557));
#164 = CARTESIAN_POINT('',(-0.227563182122,-46.5473255956));
#165 = CARTESIAN_POINT('',(-0.247547442124,-46.86324654846));
#166 = CARTESIAN_POINT('',(-0.261557287996,-47.11511636637));
#167 = CARTESIAN_POINT('',(-0.27435380935,-47.37529898167));
#168 = CARTESIAN_POINT('',(-0.285970838975,-47.64258426255));
#169 = CARTESIAN_POINT('',(-0.296423955446,-47.91596785088));
#170 = CARTESIAN_POINT('',(-0.305710723242,-48.19465469663));
#171 = CARTESIAN_POINT('',(-0.313815737767,-48.47803849613));
#172 = CARTESIAN_POINT('',(-0.32432058209,-48.91670483945));
#173 = CARTESIAN_POINT('',(-0.327599980609,-49.06881340391));
#174 = CARTESIAN_POINT('',(-0.330538041613,-49.22196438761));
#175 = CARTESIAN_POINT('',(-0.33312818905,-49.37606593661));
#176 = CARTESIAN_POINT('',(-0.335362611051,-49.53102248273));
#177 = CARTESIAN_POINT('',(-0.337232357119,-49.68673423365));
#178 = CARTESIAN_POINT('',(-0.338727435318,-49.84309666292));
#179 = CARTESIAN_POINT('',(-0.339836909454,-50.));
#180 = ( GEOMETRIC_REPRESENTATION_CONTEXT(2) 
PARAMETRIC_REPRESENTATION_CONTEXT() REPRESENTATION_CONTEXT('2D SPACE',''
  ) );
#181 = PCURVE('',#182,#187);
#182 = CYLINDRICAL_SURFACE('',#183,5.);
#183 = AXIS2_PLACEMENT_3D('',#184,#185,#186);
#184 = CARTESIAN_POINT('',(-34.,3.532708032038E-16,50.));
#185 = DIRECTION('',(-1.,-0.,-0.));
#186 = DIRECTION('',(-0.,-1.,0.));
#187 = DEFINITIONAL_REPRESENTATION('',(#188),#233);
#188 = B_SPLINE_CURVE_WITH_KNOTS('',8,(#189,#190,#191,#192,#193,#194,
    #195,#196,#197,#198,#199,#200,#201,#202,#203,#204,#205,#206,#207,
    #208,#209,#210,#211,#212,#213,#214,#215,#216,#217,#218,#219,#220,
    #221,#222,#223,#224,#225,#226,#227,#228,#229,#230,#231,#232),
  .UNSPECIFIED.,.F.,.F.,(9,7,7,7,7,7,9),(0.,0.139885649217,
    0.232149690737,0.358534783077,0.465582447364,0.816067439706,1.),
  .UNSPECIFIED.);
#189 = CARTESIAN_POINT('',(-1.570796326795,-50.5));
#190 = CARTESIAN_POINT('',(-1.606480989624,-50.5));
#191 = CARTESIAN_POINT('',(-1.64217717681,-50.49561198905));
#192 = CARTESIAN_POINT('',(-1.677739926369,-50.48683114498));
#193 = CARTESIAN_POINT('',(-1.713055253816,-50.47377716974));
#194 = CARTESIAN_POINT('',(-1.748031365052,-50.45666138249));
#195 = CARTESIAN_POINT('',(-1.782592356041,-50.43575904411));
#196 = CARTESIAN_POINT('',(-1.816674399286,-50.41138691316));
#197 = CARTESIAN_POINT('',(-1.872352921713,-50.36574734388));
#198 = CARTESIAN_POINT('',(-1.894257707023,-50.34624104863));
#199 = CARTESIAN_POINT('',(-1.915930356114,-50.32545789763));
#200 = CARTESIAN_POINT('',(-1.937365618865,-50.30348876817));
#201 = CARTESIAN_POINT('',(-1.958561131069,-50.28042296536));
#202 = CARTESIAN_POINT('',(-1.979517133566,-50.25634652267));
#203 = CARTESIAN_POINT('',(-2.000236191383,-50.2313405026));
#204 = CARTESIAN_POINT('',(-2.048786025458,-50.17005411145));
#205 = CARTESIAN_POINT('',(-2.076409895296,-50.13302857481));
#206 = CARTESIAN_POINT('',(-2.103609298508,-50.09459259742));
#207 = CARTESIAN_POINT('',(-2.130400056865,-50.05492126899));
#208 = CARTESIAN_POINT('',(-2.156799329887,-50.01417411164));
#209 = CARTESIAN_POINT('',(-2.182825906946,-49.97249433254));
#210 = CARTESIAN_POINT('',(-2.208500499374,-49.93000807666));
#211 = CARTESIAN_POINT('',(-2.25531359714,-49.85024666887));
#212 = CARTESIAN_POINT('',(-2.276543210562,-49.81317212305));
#213 = CARTESIAN_POINT('',(-2.297547850393,-49.77566785968));
#214 = CARTESIAN_POINT('',(-2.318339715502,-49.7377964598));
#215 = CARTESIAN_POINT('',(-2.33893044584,-49.69961546176));
#216 = CARTESIAN_POINT('',(-2.359331342204,-49.66117755538));
#217 = CARTESIAN_POINT('',(-2.379553586004,-49.62253077599));
#218 = CARTESIAN_POINT('',(-2.465270162747,-49.45664399036));
#219 = CARTESIAN_POINT('',(-2.529091168503,-49.32788720413));
#220 = CARTESIAN_POINT('',(-2.591524614746,-49.1988758213));
#221 = CARTESIAN_POINT('',(-2.652867097061,-49.07080206221));
#222 = CARTESIAN_POINT('',(-2.713374069948,-48.94470570241));
#223 = CARTESIAN_POINT('',(-2.773271209062,-48.82147860498));
#224 = CARTESIAN_POINT('',(-2.832784385726,-48.70189003912));
#225 = CARTESIAN_POINT('',(-2.923319485047,-48.52610123898));
#226 = CARTESIAN_POINT('',(-2.954430095163,-48.46680595609));
#227 = CARTESIAN_POINT('',(-2.985520787384,-48.40882378482));
#228 = CARTESIAN_POINT('',(-3.01661882843,-48.35225908395));
#229 = CARTESIAN_POINT('',(-3.047750063436,-48.29721315659));
#230 = CARTESIAN_POINT('',(-3.078939515658,-48.24378331739));
#231 = CARTESIAN_POINT('',(-3.110211986174,-48.19206195986));
#232 = CARTESIAN_POINT('',(-3.14159265359,-48.14213562373));
#233 = ( GEOMETRIC_REPRESENTATION_CONTEXT(2) 
PARAMETRIC_REPRESENTATION_CONTEXT() REPRESENTATION_CONTEXT('2D SPACE',''
  ) );
#234 = ORIENTED_EDGE('',*,*,#235,.F.);
#235 = EDGE_CURVE('',#236,#85,#238,.T.);
#236 = VERTEX_POINT('',#237);
#237 = CARTESIAN_POINT('',(30.,-7.347880794884E-15,0.));
#238 = SEAM_CURVE('',#239,(#243,#250),.PCURVE_S1.);
#239 = LINE('',#240,#241);
#240 = CARTESIAN_POINT('',(30.,-7.347880794884E-15,0.));
#241 = VECTOR('',#242,1.);
#242 = DIRECTION('',(-0.287347885566,7.037993366012E-17,0.957826285221)
  );
#243 = PCURVE('',#32,#244);
#244 = DEFINITIONAL_REPRESENTATION('',(#245),#249);
#245 = LINE('',#246,#247);
#246 = CARTESIAN_POINT('',(-6.28318530718,0.));
#247 = VECTOR('',#248,1.);
#248 = DIRECTION('',(-0.,-1.));
#249 = ( GEOMETRIC_REPRESENTATION_CONTEXT(2) 
PARAMETRIC_REPRESENTATION_CONTEXT() REPRESENTATION_CONTEXT('2D SPACE',''
  ) );
#250 = PCURVE('',#32,#251);
#251 = DEFINITIONAL_REPRESENTATION('',(#252),#256);
#252 = LINE('',#253,#254);
#253 = CARTESIAN_POINT('',(0.,-0.));
#254 = VECTOR('',#255,1.);
#255 = DIRECTION('',(-0.,-1.));
#256 = ( GEOMETRIC_REPRESENTATION_CONTEXT(2) 
PARAMETRIC_REPRESENTATION_CONTEXT() REPRESENTATION_CONTEXT('2D SPACE',''
  ) );
#257 = ORIENTED_EDGE('',*,*,#258,.T.);
#258 = EDGE_CURVE('',#236,#236,#259,.T.);
#259 = SURFACE_CURVE('',#260,(#265,#272),.PCURVE_S1.);
#260 = CIRCLE('',#261,30.);
#261 = AXIS2_PLACEMENT_3D('',#262,#263,#264);
#262 = CARTESIAN_POINT('',(0.,0.,0.));
#263 = DIRECTION('',(0.,0.,1.));
#264 = DIRECTION('',(1.,0.,-0.));
#265 = PCURVE('',#32,#266);
#266 = DEFINITIONAL_REPRESENTATION('',(#267),#271);
#267 = LINE('',#268,#269);
#268 = CARTESIAN_POINT('',(-0.,-0.));
#269 = VECTOR('',#270,1.);
#270 = DIRECTION('',(-1.,-0.));
#271 = ( GEOMETRIC_REPRESENTATION_CONTEXT(2) 
PARAMETRIC_REPRESENTATION_CONTEXT() REPRESENTATION_CONTEXT('2D SPACE',''
  ) );
#272 = PCURVE('',#273,#278);
#273 = PLANE('',#274);
#274 = AXIS2_PLACEMENT_3D('',#275,#276,#277);
#275 = CARTESIAN_POINT('',(0.,0.,0.));
#276 = DIRECTION('',(0.,0.,1.));
#277 = DIRECTION('',(1.,0.,-0.));
#278 = DEFINITIONAL_REPRESENTATION('',(#279),#283);
#279 = CIRCLE('',#280,30.);
#280 = AXIS2_PLACEMENT_2D('',#281,#282);
#281 = CARTESIAN_POINT('',(0.,0.));
#282 = DIRECTION('',(1.,0.));
#283 = ( GEOMETRIC_REPRESENTATION_CONTEXT(2) 
PARAMETRIC_REPRESENTATION_CONTEXT() REPRESENTATION_CONTEXT('2D SPACE',''
  ) );
#284 = ORIENTED_EDGE('',*,*,#235,.T.);
#285 = ORIENTED_EDGE('',*,*,#286,.F.);
#286 = EDGE_CURVE('',#287,#85,#289,.T.);
#287 = VERTEX_POINT('',#288);
#288 = CARTESIAN_POINT('',(14.142135623731,-5.,50.));
#289 = SURFACE_CURVE('',#290,(#323,#359),.PCURVE_S1.);
#290 = B_SPLINE_CURVE_WITH_KNOTS('',6,(#291,#292,#293,#294,#295,#296,
    #297,#298,#299,#300,#301,#302,#303,#304,#305,#306,#307,#308,#309,
    #310,#311,#312,#313,#314,#315,#316,#317,#318,#319,#320,#321,#322),
  .UNSPECIFIED.,.F.,.F.,(7,5,5,5,5,5,7),(0.,0.183949809262,
    0.421803070126,0.640468619334,0.767842537833,0.860109674426,1.),
  .UNSPECIFIED.);
#291 = CARTESIAN_POINT('',(14.142135623731,-5.,50.));
#292 = CARTESIAN_POINT('',(14.208705640886,-5.,49.790790619759));
#293 = CARTESIAN_POINT('',(14.278624385702,-4.989495988338,
    49.582597686337));
#294 = CARTESIAN_POINT('',(14.351651059858,-4.968677248259,
    49.375722439295));
#295 = CARTESIAN_POINT('',(14.4275171623,-4.937672958702,49.170445036516
    ));
#296 = CARTESIAN_POINT('',(14.505934492151,-4.89654199658,
    48.967029280383));
#297 = CARTESIAN_POINT('',(14.690910428588,-4.77895694259,
    48.505437201855));
#298 = CARTESIAN_POINT('',(14.798964940063,-4.695693295974,
    48.248722945971));
#299 = CARTESIAN_POINT('',(14.910139818349,-4.595417633601,
    47.996067516658));
#300 = CARTESIAN_POINT('',(15.023719611565,-4.477832126998,
    47.748074096653));
#301 = CARTESIAN_POINT('',(15.138898035619,-4.34244942102,
    47.505454766664));
#302 = CARTESIAN_POINT('',(15.361251630369,-4.046643712106,
    47.051785403396));
#303 = CARTESIAN_POINT('',(15.468270301278,-3.889190020768,
    46.839874644779));
#304 = CARTESIAN_POINT('',(15.575129136161,-3.715209648258,
    46.633929688442));
#305 = CARTESIAN_POINT('',(15.680909948366,-3.523746974128,
    46.43498136667));
#306 = CARTESIAN_POINT('',(15.784427262119,-3.31377958648,
    46.244443747475));
#307 = CARTESIAN_POINT('',(15.942210148578,-2.9498883544,45.95931751482)
  );
#308 = CARTESIAN_POINT('',(15.998974898257,-2.809209225505,
    45.857917397138));
#309 = CARTESIAN_POINT('',(16.054117096665,-2.661522251895,
    45.760460125734));
#310 = CARTESIAN_POINT('',(16.107242327066,-2.506598211469,
    45.667472616851));
#311 = CARTESIAN_POINT('',(16.157877763988,-2.344277811664,
    45.57960288007));
#312 = CARTESIAN_POINT('',(16.239960902569,-2.051511390062,
    45.438207084523));
#313 = CARTESIAN_POINT('',(16.272846162879,-1.924626072274,
    45.381897954463));
#314 = CARTESIAN_POINT('',(16.303926780229,-1.793831982844,
    45.328967420544));
#315 = CARTESIAN_POINT('',(16.332963328186,-1.659185168732,
    45.279754028739));
#316 = CARTESIAN_POINT('',(16.359701112747,-1.520831264675,
    45.234621168279));
#317 = CARTESIAN_POINT('',(16.420553870969,-1.164038349227,
    45.132244711735));
#318 = CARTESIAN_POINT('',(16.451381378252,-0.940962201512,
    45.080726909638));
#319 = CARTESIAN_POINT('',(16.4754136347,-0.711015965808,45.040770566765
    ));
#320 = CARTESIAN_POINT('',(16.491809046298,-0.475903360414,
    45.01358318411));
#321 = CARTESIAN_POINT('',(16.5,-0.237897751346,45.));
#322 = CARTESIAN_POINT('',(16.5,-4.440892098501E-15,45.));
#323 = PCURVE('',#32,#324);
#324 = DEFINITIONAL_REPRESENTATION('',(#325),#358);
#325 = B_SPLINE_CURVE_WITH_KNOTS('',6,(#326,#327,#328,#329,#330,#331,
    #332,#333,#334,#335,#336,#337,#338,#339,#340,#341,#342,#343,#344,
    #345,#346,#347,#348,#349,#350,#351,#352,#353,#354,#355,#356,#357),
  .UNSPECIFIED.,.F.,.F.,(7,5,5,5,5,5,7),(0.,0.183949809262,
    0.421803070126,0.640468619334,0.767842537833,0.860109674426,1.),
  .UNSPECIFIED.);
#326 = CARTESIAN_POINT('',(-5.943348397725,-50.));
#327 = CARTESIAN_POINT('',(-5.94482773144,-49.79079061975));
#328 = CARTESIAN_POINT('',(-5.947026845053,-49.58259768633));
#329 = CARTESIAN_POINT('',(-5.949915074965,-49.37572243929));
#330 = CARTESIAN_POINT('',(-5.953466277385,-49.17044503651));
#331 = CARTESIAN_POINT('',(-5.95765959407,-48.96702928038));
#332 = CARTESIAN_POINT('',(-5.968713446273,-48.50543720185));
#333 = CARTESIAN_POINT('',(-5.975994561453,-48.24872294597));
#334 = CARTESIAN_POINT('',(-5.984292492988,-47.99606751665));
#335 = CARTESIAN_POINT('',(-5.993592952146,-47.74807409665));
#336 = CARTESIAN_POINT('',(-6.003895261542,-47.50545476666));
#337 = CARTESIAN_POINT('',(-6.025648484285,-47.05178540339));
#338 = CARTESIAN_POINT('',(-6.036934656192,-46.83987464477));
#339 = CARTESIAN_POINT('',(-6.049113278849,-46.63392968844));
#340 = CARTESIAN_POINT('',(-6.062221196637,-46.43498136667));
#341 = CARTESIAN_POINT('',(-6.076300295977,-46.24444374747));
#342 = CARTESIAN_POINT('',(-6.100235732758,-45.95931751482));
#343 = CARTESIAN_POINT('',(-6.109398079214,-45.85791739713));
#344 = CARTESIAN_POINT('',(-6.118926095682,-45.76046012573));
#345 = CARTESIAN_POINT('',(-6.128830940266,-45.66747261685));
#346 = CARTESIAN_POINT('',(-6.139120584711,-45.57960288007));
#347 = CARTESIAN_POINT('',(-6.157534586746,-45.43820708452));
#348 = CARTESIAN_POINT('',(-6.165473131943,-45.38189795446));
#349 = CARTESIAN_POINT('',(-6.173615496338,-45.32896742054));
#350 = CARTESIAN_POINT('',(-6.181958899036,-45.27975402873));
#351 = CARTESIAN_POINT('',(-6.190495928685,-45.23462116827));
#352 = CARTESIAN_POINT('',(-6.212430218898,-45.13224471173));
#353 = CARTESIAN_POINT('',(-6.226071567645,-45.08072690963));
#354 = CARTESIAN_POINT('',(-6.24007199376,-45.04077056676));
#355 = CARTESIAN_POINT('',(-6.25434268411,-45.01358318411));
#356 = CARTESIAN_POINT('',(-6.268767261643,-45.));
#357 = CARTESIAN_POINT('',(-6.28318530718,-45.));
#358 = ( GEOMETRIC_REPRESENTATION_CONTEXT(2) 
PARAMETRIC_REPRESENTATION_CONTEXT() REPRESENTATION_CONTEXT('2D SPACE',''
  ) );
#359 = PCURVE('',#182,#360);
#360 = DEFINITIONAL_REPRESENTATION('',(#361),#394);
#361 = B_SPLINE_CURVE_WITH_KNOTS('',6,(#362,#363,#364,#365,#366,#367,
    #368,#369,#370,#371,#372,#373,#374,#375,#376,#377,#378,#379,#380,
    #381,#382,#383,#384,#385,#386,#387,#388,#389,#390,#391,#392,#393),
  .UNSPECIFIED.,.F.,.F.,(7,5,5,5,5,5,7),(0.,0.183949809262,
    0.421803070126,0.640468619334,0.767842537833,0.860109674426,1.),
  .UNSPECIFIED.);
#362 = CARTESIAN_POINT('',(0.,-48.14213562373));
#363 = CARTESIAN_POINT('',(-4.184187604816E-02,-48.20870564088));
#364 = CARTESIAN_POINT('',(-8.348043861646E-02,-48.2786243857));
#365 = CARTESIAN_POINT('',(-0.124987398411,-48.35165105985));
#366 = CARTESIAN_POINT('',(-0.166432050821,-48.4275171623));
#367 = CARTESIAN_POINT('',(-0.207886850269,-48.50593449215));
#368 = CARTESIAN_POINT('',(-0.303153526894,-48.69091042858));
#369 = CARTESIAN_POINT('',(-0.357018348269,-48.79896494006));
#370 = CARTESIAN_POINT('',(-0.411214918582,-48.91013981834));
#371 = CARTESIAN_POINT('',(-0.465929779402,-49.02371961156));
#372 = CARTESIAN_POINT('',(-0.521365399547,-49.13889803561));
#373 = CARTESIAN_POINT('',(-0.629682878948,-49.36125163036));
#374 = CARTESIAN_POINT('',(-0.682384840985,-49.46827030127));
#375 = CARTESIAN_POINT('',(-0.736143050512,-49.57512913616));
#376 = CARTESIAN_POINT('',(-0.791184029205,-49.68090994836));
#377 = CARTESIAN_POINT('',(-0.847742623825,-49.78442726211));
#378 = CARTESIAN_POINT('',(-0.940201003074,-49.94221014857));
#379 = CARTESIAN_POINT('',(-0.974856064537,-49.99897489825));
#380 = CARTESIAN_POINT('',(-1.010198896808,-50.05411709666));
#381 = CARTESIAN_POINT('',(-1.046284663514,-50.10724232706));
#382 = CARTESIAN_POINT('',(-1.08316077302,-50.15787776398));
#383 = CARTESIAN_POINT('',(-1.148185367941,-50.23996090256));
#384 = CARTESIAN_POINT('',(-1.175934690113,-50.27284616287));
#385 = CARTESIAN_POINT('',(-1.204130610701,-50.30392678022));
#386 = CARTESIAN_POINT('',(-1.232776497651,-50.33296332818));
#387 = CARTESIAN_POINT('',(-1.261863562006,-50.35970111274));
#388 = CARTESIAN_POINT('',(-1.336101590904,-50.42055387096));
#389 = CARTESIAN_POINT('',(-1.381828059741,-50.45138137825));
#390 = CARTESIAN_POINT('',(-1.428399027473,-50.4754136347));
#391 = CARTESIAN_POINT('',(-1.475615710914,-50.49180904629));
#392 = CARTESIAN_POINT('',(-1.523216776526,-50.5));
#393 = CARTESIAN_POINT('',(-1.570796326795,-50.5));
#394 = ( GEOMETRIC_REPRESENTATION_CONTEXT(2) 
PARAMETRIC_REPRESENTATION_CONTEXT() REPRESENTATION_CONTEXT('2D SPACE',''
  ) );
#395 = ORIENTED_EDGE('',*,*,#396,.F.);
#396 = EDGE_CURVE('',#22,#287,#397,.T.);
#397 = SURFACE_CURVE('',#398,(#403,#413),.PCURVE_S1.);
#398 = ELLIPSE('',#399,20.980091309931,14.151845295746);
#399 = AXIS2_PLACEMENT_3D('',#400,#401,#402);
#400 = CARTESIAN_POINT('',(0.,-4.450549450549,50.549450549451));
#401 = DIRECTION('',(0.,0.707106781187,-0.707106781187));
#402 = DIRECTION('',(0.,-0.707106781187,-0.707106781187));
#403 = PCURVE('',#32,#404);
#404 = DEFINITIONAL_REPRESENTATION('',(#405),#412);
#405 = B_SPLINE_CURVE_WITH_KNOTS('',5,(#406,#407,#408,#409,#410,#411),
  .UNSPECIFIED.,.F.,.F.,(6,6),(4.407696326369,4.783188855141),
  .PIECEWISE_BEZIER_KNOTS.);
#406 = CARTESIAN_POINT('',(-6.28318530718,-55.));
#407 = CARTESIAN_POINT('',(-6.204460682337,-53.93721756462));
#408 = CARTESIAN_POINT('',(-6.128060227461,-52.84306012224));
#409 = CARTESIAN_POINT('',(-6.053891923378,-51.73001366569));
#410 = CARTESIAN_POINT('',(-5.981811506561,-50.61130759992));
#411 = CARTESIAN_POINT('',(-5.91166085076,-49.5));
#412 = ( GEOMETRIC_REPRESENTATION_CONTEXT(2) 
PARAMETRIC_REPRESENTATION_CONTEXT() REPRESENTATION_CONTEXT('2D SPACE',''
  ) );
#413 = PCURVE('',#414,#419);
#414 = PLANE('',#415);
#415 = AXIS2_PLACEMENT_3D('',#416,#417,#418);
#416 = CARTESIAN_POINT('',(-34.,2.584746094441E-16,55.));
#417 = DIRECTION('',(0.,0.707106781187,-0.707106781187));
#418 = DIRECTION('',(0.,-0.707106781187,-0.707106781187));
#419 = DEFINITIONAL_REPRESENTATION('',(#420),#424);
#420 = ELLIPSE('',#421,20.980091309931,14.151845295746);
#421 = AXIS2_PLACEMENT_2D('',#422,#423);
#422 = CARTESIAN_POINT('',(6.294027392979,-34.));
#423 = DIRECTION('',(1.,0.));
#424 = ( GEOMETRIC_REPRESENTATION_CONTEXT(2) 
PARAMETRIC_REPRESENTATION_CONTEXT() REPRESENTATION_CONTEXT('2D SPACE',''
  ) );
#425 = FACE_BOUND('',#426,.T.);
#426 = EDGE_LOOP('',(#427,#456,#728));
#427 = ORIENTED_EDGE('',*,*,#428,.F.);
#428 = EDGE_CURVE('',#429,#431,#433,.T.);
#429 = VERTEX_POINT('',#430);
#430 = CARTESIAN_POINT('',(-14.14213562373,-5.,50.));
#431 = VERTEX_POINT('',#432);
#432 = CARTESIAN_POINT('',(-13.5,1.29237304722E-16,55.));
#433 = SURFACE_CURVE('',#434,(#439,#449),.PCURVE_S1.);
#434 = ELLIPSE('',#435,20.980091309931,14.151845295746);
#435 = AXIS2_PLACEMENT_3D('',#436,#437,#438);
#436 = CARTESIAN_POINT('',(0.,-4.450549450549,50.549450549451));
#437 = DIRECTION('',(0.,0.707106781187,-0.707106781187));
#438 = DIRECTION('',(0.,-0.707106781187,-0.707106781187));
#439 = PCURVE('',#32,#440);
#440 = DEFINITIONAL_REPRESENTATION('',(#441),#448);
#441 = B_SPLINE_CURVE_WITH_KNOTS('',5,(#442,#443,#444,#445,#446,#447),
  .UNSPECIFIED.,.F.,.F.,(6,6),(1.499996452039,1.911026100644),
  .PIECEWISE_BEZIER_KNOTS.);
#442 = CARTESIAN_POINT('',(-3.513117110009,-49.5));
#443 = CARTESIAN_POINT('',(-3.436327301441,-50.71648325143));
#444 = CARTESIAN_POINT('',(-3.357225133903,-51.94183173528));
#445 = CARTESIAN_POINT('',(-3.275603422014,-53.15891742415));
#446 = CARTESIAN_POINT('',(-3.191274198974,-54.35036785197));
#447 = CARTESIAN_POINT('',(-3.104130708352,-55.5));
#448 = ( GEOMETRIC_REPRESENTATION_CONTEXT(2) 
PARAMETRIC_REPRESENTATION_CONTEXT() REPRESENTATION_CONTEXT('2D SPACE',''
  ) );
#449 = PCURVE('',#414,#450);
#450 = DEFINITIONAL_REPRESENTATION('',(#451),#455);
#451 = ELLIPSE('',#452,20.980091309931,14.151845295746);
#452 = AXIS2_PLACEMENT_2D('',#453,#454);
#453 = CARTESIAN_POINT('',(6.294027392979,-34.));
#454 = DIRECTION('',(1.,0.));
#455 = ( GEOMETRIC_REPRESENTATION_CONTEXT(2) 
PARAMETRIC_REPRESENTATION_CONTEXT() REPRESENTATION_CONTEXT('2D SPACE',''
  ) );
#456 = ORIENTED_EDGE('',*,*,#457,.T.);
#457 = EDGE_CURVE('',#429,#458,#460,.T.);
#458 = VERTEX_POINT('',#459);
#459 = CARTESIAN_POINT('',(-14.14213562373,5.,50.));
#460 = SURFACE_CURVE('',#461,(#548,#638),.PCURVE_S1.);
#461 = B_SPLINE_CURVE_WITH_KNOTS('',8,(#462,#463,#464,#465,#466,#467,
    #468,#469,#470,#471,#472,#473,#474,#475,#476,#477,#478,#479,#480,
    #481,#482,#483,#484,#485,#486,#487,#488,#489,#490,#491,#492,#493,
    #494,#495,#496,#497,#498,#499,#500,#501,#502,#503,#504,#505,#506,
    #507,#508,#509,#510,#511,#512,#513,#514,#515,#516,#517,#518,#519,
    #520,#521,#522,#523,#524,#525,#526,#527,#528,#529,#530,#531,#532,
    #533,#534,#535,#536,#537,#538,#539,#540,#541,#542,#543,#544,#545,
    #546,#547),.UNSPECIFIED.,.F.,.F.,(9,7,7,7,7,7,7,7,7,7,7,7,9),(0.,
    9.19728543208E-02,0.210896833633,0.320227170984,0.38391271052,
    0.430045250404,0.499602605762,0.56993318548,0.616066214357,
    0.679752428943,0.732785241572,0.908031660613,1.),.UNSPECIFIED.);
#462 = CARTESIAN_POINT('',(-14.14213562373,-5.,50.));
#463 = CARTESIAN_POINT('',(-14.19206313659,-5.,49.843092964819));
#464 = CARTESIAN_POINT('',(-14.24378461071,-4.994372850895,
    49.68673045472));
#465 = CARTESIAN_POINT('',(-14.29721404667,-4.983186153845,
    49.53102005526));
#466 = CARTESIAN_POINT('',(-14.35225950877,-4.966494630514,
    49.376064834494));
#467 = CARTESIAN_POINT('',(-14.40882398248,-4.944339030459,
    49.221963849351));
#468 = CARTESIAN_POINT('',(-14.46680623185,-4.91674503852,
    49.068812652011));
#469 = CARTESIAN_POINT('',(-14.52610165701,-4.883722182201,
    48.91670379628));
#470 = CARTESIAN_POINT('',(-14.66483360934,-4.795533391709,
    48.570509737384));
#471 = CARTESIAN_POINT('',(-14.74507151412,-4.736719481777,
    48.377207784136));
#472 = CARTESIAN_POINT('',(-14.82709298465,-4.668801664407,
    48.185993962918));
#473 = CARTESIAN_POINT('',(-14.91065515726,-4.591708381266,
    47.997066518653));
#474 = CARTESIAN_POINT('',(-14.99549594513,-4.505321660858,
    47.810648247013));
#475 = CARTESIAN_POINT('',(-15.08133279463,-4.409471610484,
    47.626987670029));
#476 = CARTESIAN_POINT('',(-15.16786043892,-4.303919599852,
    47.446362602757));
#477 = CARTESIAN_POINT('',(-15.33462563498,-4.082065318167,
    47.106110580305));
#478 = CARTESIAN_POINT('',(-15.41477934758,-3.967353749755,
    46.946022522267));
#479 = CARTESIAN_POINT('',(-15.49496788471,-3.843924211801,
    46.789027598796));
#480 = CARTESIAN_POINT('',(-15.5748981313,-3.711463440768,
    46.635428967278));
#481 = CARTESIAN_POINT('',(-15.65422222762,-3.569629994783,
    46.485619593818));
#482 = CARTESIAN_POINT('',(-15.73253243223,-3.418049749695,
    46.340082689508));
#483 = CARTESIAN_POINT('',(-15.80935337947,-3.256293025307,
    46.199400269725));
#484 = CARTESIAN_POINT('',(-15.92769054431,-2.983374601247,
    45.985555595234));
#485 = CARTESIAN_POINT('',(-15.97054560672,-2.879308284899,
    45.908744320407));
#486 = CARTESIAN_POINT('',(-16.01258660308,-2.771536641598,
    45.833975527103));
#487 = CARTESIAN_POINT('',(-16.05368488923,-2.659971451863,
    45.761417931989));
#488 = CARTESIAN_POINT('',(-16.09369425587,-2.544536754499,
    45.691267826797));
#489 = CARTESIAN_POINT('',(-16.13245169182,-2.42517157321,
    45.623747451833));
#490 = CARTESIAN_POINT('',(-16.16977814732,-2.301832643217,
    45.559103369482));
#491 = CARTESIAN_POINT('',(-16.23134050125,-2.082257827016,
    45.453056522821));
#492 = CARTESIAN_POINT('',(-16.2563465204,-1.987929460812,
    45.410162827462));
#493 = CARTESIAN_POINT('',(-16.28042296261,-1.891508752955,
    45.369027313427));
#494 = CARTESIAN_POINT('',(-16.30348876535,-1.793006398983,
    45.329763950997));
#495 = CARTESIAN_POINT('',(-16.32545789511,-1.692449684051,
    45.292494576477));
#496 = CARTESIAN_POINT('',(-16.34624104674,-1.589885090693,
    45.257346349728));
#497 = CARTESIAN_POINT('',(-16.36574734286,-1.485380906589,
    45.224449211699));
#498 = CARTESIAN_POINT('',(-16.41123504395,-1.218676652479,
    45.147922365736));
#499 = CARTESIAN_POINT('',(-16.43548943586,-1.054042041363,
    45.107300594179));
#500 = CARTESIAN_POINT('',(-16.45631419369,-0.885551183764,
    45.072555794482));
#501 = CARTESIAN_POINT('',(-16.47339778965,-0.713732224859,
    45.044137831186));
#502 = CARTESIAN_POINT('',(-16.48646898876,-0.539224761719,
    45.022438806901));
#503 = CARTESIAN_POINT('',(-16.49531876435,-0.362791050093,
    45.007762964109));
#504 = CARTESIAN_POINT('',(-16.49982732353,-0.185329926498,
    45.000286348043));
#505 = CARTESIAN_POINT('',(-16.50016703969,0.171515482479,
    44.999722999377));
#506 = CARTESIAN_POINT('',(-16.49590128957,0.351016068209,
    45.006796974954));
#507 = CARTESIAN_POINT('',(-16.48719081058,0.529516683628,
    45.021240605648));
#508 = CARTESIAN_POINT('',(-16.47415515797,0.706084277922,
    45.042878061582));
#509 = CARTESIAN_POINT('',(-16.45700793484,0.879927190804,
    45.071398390497));
#510 = CARTESIAN_POINT('',(-16.43602845701,1.050380775017,
    45.106397845452));
#511 = CARTESIAN_POINT('',(-16.4115387722,1.216895827943,45.147411384442
    ));
#512 = CARTESIAN_POINT('',(-16.36574734286,1.485380906588,
    45.224449211699));
#513 = CARTESIAN_POINT('',(-16.34624104674,1.589885090693,
    45.257346349728));
#514 = CARTESIAN_POINT('',(-16.32545789511,1.692449684051,
    45.292494576477));
#515 = CARTESIAN_POINT('',(-16.30348876535,1.793006398983,
    45.329763950997));
#516 = CARTESIAN_POINT('',(-16.28042296261,1.891508752955,
    45.369027313427));
#517 = CARTESIAN_POINT('',(-16.2563465204,1.987929460812,45.410162827462
    ));
#518 = CARTESIAN_POINT('',(-16.23134050125,2.082257827016,
    45.453056522821));
#519 = CARTESIAN_POINT('',(-16.16977814732,2.301832643217,
    45.559103369482));
#520 = CARTESIAN_POINT('',(-16.13245169182,2.42517157321,45.623747451833
    ));
#521 = CARTESIAN_POINT('',(-16.09369425587,2.544536754499,
    45.691267826797));
#522 = CARTESIAN_POINT('',(-16.05368488923,2.659971451863,
    45.761417931989));
#523 = CARTESIAN_POINT('',(-16.01258660308,2.771536641597,
    45.833975527103));
#524 = CARTESIAN_POINT('',(-15.97054560672,2.879308284899,
    45.908744320407));
#525 = CARTESIAN_POINT('',(-15.92769054431,2.983374601247,
    45.985555595234));
#526 = CARTESIAN_POINT('',(-15.84785941778,3.167487388407,
    46.129816794071));
#527 = CARTESIAN_POINT('',(-15.81110238618,3.24863252647,46.196677484683
    ));
#528 = CARTESIAN_POINT('',(-15.77392633803,3.327321780753,
    46.264767943189));
#529 = CARTESIAN_POINT('',(-15.73639194491,3.403605938058,
    46.334011618473));
#530 = CARTESIAN_POINT('',(-15.69855503418,3.477533849586,
    46.404339262739));
#531 = CARTESIAN_POINT('',(-15.66046677425,3.549152733325,
    46.475688820826));
#532 = CARTESIAN_POINT('',(-15.62217386007,3.61850847642,46.548005319522
    ));
#533 = CARTESIAN_POINT('',(-15.45664398695,3.907501031884,
    46.863246554954));
#534 = CARTESIAN_POINT('',(-15.32788719903,4.104976325801,47.11511637644
    ));
#535 = CARTESIAN_POINT('',(-15.19887581587,4.279926640279,
    47.375298992855));
#536 = CARTESIAN_POINT('',(-15.07080205735,4.43341877021,47.642584273013
    ));
#537 = CARTESIAN_POINT('',(-14.94470569865,4.566262661148,
    47.915967859377));
#538 = CARTESIAN_POINT('',(-14.82147860253,4.679000010277,
    48.194654702448));
#539 = CARTESIAN_POINT('',(-14.70189003797,4.771977451165,
    48.478038499003));
#540 = CARTESIAN_POINT('',(-14.52610123922,4.88372244778,48.916704838838
    ));
#541 = CARTESIAN_POINT('',(-14.46680595647,4.916745155654,
    49.068813402947));
#542 = CARTESIAN_POINT('',(-14.40882378527,4.944339109693,
    49.221964386395));
#543 = CARTESIAN_POINT('',(-14.35225908449,4.966494843071,49.37606593514
    ));
#544 = CARTESIAN_POINT('',(-14.29721315719,4.983186492106,
    49.531022481049));
#545 = CARTESIAN_POINT('',(-14.24378331797,4.994373113238,
    49.686734231939));
#546 = CARTESIAN_POINT('',(-14.19206196027,5.,49.843096661633));
#547 = CARTESIAN_POINT('',(-14.14213562373,5.,50.));
#548 = PCURVE('',#32,#549);
#549 = DEFINITIONAL_REPRESENTATION('',(#550),#637);
#550 = B_SPLINE_CURVE_WITH_KNOTS('',8,(#551,#552,#553,#554,#555,#556,
    #557,#558,#559,#560,#561,#562,#563,#564,#565,#566,#567,#568,#569,
    #570,#571,#572,#573,#574,#575,#576,#577,#578,#579,#580,#581,#582,
    #583,#584,#585,#586,#587,#588,#589,#590,#591,#592,#593,#594,#595,
    #596,#597,#598,#599,#600,#601,#602,#603,#604,#605,#606,#607,#608,
    #609,#610,#611,#612,#613,#614,#615,#616,#617,#618,#619,#620,#621,
    #622,#623,#624,#625,#626,#627,#628,#629,#630,#631,#632,#633,#634,
    #635,#636),.UNSPECIFIED.,.F.,.F.,(9,7,7,7,7,7,7,7,7,7,7,7,9),(0.,
    9.19728543208E-02,0.210896833633,0.320227170984,0.38391271052,
    0.430045250404,0.499602605762,0.56993318548,0.616066214357,
    0.679752428943,0.732785241572,0.908031660613,1.),.UNSPECIFIED.);
#551 = CARTESIAN_POINT('',(-3.481429563044,-50.));
#552 = CARTESIAN_POINT('',(-3.480320062758,-49.84309296481));
#553 = CARTESIAN_POINT('',(-3.478824966098,-49.68673045472));
#554 = CARTESIAN_POINT('',(-3.476955224349,-49.53102005526));
#555 = CARTESIAN_POINT('',(-3.474720820267,-49.37606483449));
#556 = CARTESIAN_POINT('',(-3.472130686032,-49.22196384935));
#557 = CARTESIAN_POINT('',(-3.469192621209,-49.06881265201));
#558 = CARTESIAN_POINT('',(-3.465913210698,-48.91670379628));
#559 = CARTESIAN_POINT('',(-3.457622821546,-48.57050973738));
#560 = CARTESIAN_POINT('',(-3.452386532371,-48.37720778413));
#561 = CARTESIAN_POINT('',(-3.446599971823,-48.18599396291));
#562 = CARTESIAN_POINT('',(-3.440270640433,-47.99706651865));
#563 = CARTESIAN_POINT('',(-3.433402782316,-47.81064824701));
#564 = CARTESIAN_POINT('',(-3.425997016377,-47.62698767002));
#565 = CARTESIAN_POINT('',(-3.418049259044,-47.44636260275));
#566 = CARTESIAN_POINT('',(-3.401734341987,-47.1061105803));
#567 = CARTESIAN_POINT('',(-3.393455436606,-46.94602252226));
#568 = CARTESIAN_POINT('',(-3.38470302919,-46.78902759879));
#569 = CARTESIAN_POINT('',(-3.37546554725,-46.63542896727));
#570 = CARTESIAN_POINT('',(-3.365729688413,-46.48561959381));
#571 = CARTESIAN_POINT('',(-3.355479859992,-46.3400826895));
#572 = CARTESIAN_POINT('',(-3.344696408665,-46.19940026972));
#573 = CARTESIAN_POINT('',(-3.32674483108,-45.98555559523));
#574 = CARTESIAN_POINT('',(-3.319948485705,-45.9087443204));
#575 = CARTESIAN_POINT('',(-3.312958698509,-45.8339755271));
#576 = CARTESIAN_POINT('',(-3.305771116205,-45.76141793198));
#577 = CARTESIAN_POINT('',(-3.298382003093,-45.69126782679));
#578 = CARTESIAN_POINT('',(-3.290788306259,-45.62374745183));
#579 = CARTESIAN_POINT('',(-3.282987720796,-45.55910336948));
#580 = CARTESIAN_POINT('',(-3.269177219269,-45.45305652282));
#581 = CARTESIAN_POINT('',(-3.26326684556,-45.41016282746));
#582 = CARTESIAN_POINT('',(-3.257247399956,-45.36902731342));
#583 = CARTESIAN_POINT('',(-3.251119384795,-45.32976395099));
#584 = CARTESIAN_POINT('',(-3.244884166663,-45.29249457647));
#585 = CARTESIAN_POINT('',(-3.238544104389,-45.25734634972));
#586 = CARTESIAN_POINT('',(-3.232102677033,-45.22444921169));
#587 = CARTESIAN_POINT('',(-3.215706699823,-45.14792236573));
#588 = CARTESIAN_POINT('',(-3.205624012033,-45.10730059417));
#589 = CARTESIAN_POINT('',(-3.195339430921,-45.07255579448));
#590 = CARTESIAN_POINT('',(-3.184880775245,-45.04413783118));
#591 = CARTESIAN_POINT('',(-3.174281237135,-45.0224388069));
#592 = CARTESIAN_POINT('',(-3.163580248281,-45.0077629641));
#593 = CARTESIAN_POINT('',(-3.152824775305,-45.00028634804));
#594 = CARTESIAN_POINT('',(-3.131197770997,-44.99972299937));
#595 = CARTESIAN_POINT('',(-3.120319201946,-45.00679697495));
#596 = CARTESIAN_POINT('',(-3.109493707974,-45.02124060564));
#597 = CARTESIAN_POINT('',(-3.098770042685,-45.04287806158));
#598 = CARTESIAN_POINT('',(-3.088189149567,-45.07139839049));
#599 = CARTESIAN_POINT('',(-3.077785517656,-45.10639784545));
#600 = CARTESIAN_POINT('',(-3.06758808577,-45.14741138444));
#601 = CARTESIAN_POINT('',(-3.051082630146,-45.22444921169));
#602 = CARTESIAN_POINT('',(-3.044641202791,-45.25734634972));
#603 = CARTESIAN_POINT('',(-3.038301140516,-45.29249457647));
#604 = CARTESIAN_POINT('',(-3.032065922384,-45.32976395099));
#605 = CARTESIAN_POINT('',(-3.025937907223,-45.36902731342));
#606 = CARTESIAN_POINT('',(-3.01991846162,-45.41016282746));
#607 = CARTESIAN_POINT('',(-3.01400808791,-45.45305652282));
#608 = CARTESIAN_POINT('',(-3.000197586384,-45.55910336948));
#609 = CARTESIAN_POINT('',(-2.99239700092,-45.62374745183));
#610 = CARTESIAN_POINT('',(-2.984803304087,-45.69126782679));
#611 = CARTESIAN_POINT('',(-2.977414190974,-45.76141793198));
#612 = CARTESIAN_POINT('',(-2.970226608671,-45.8339755271));
#613 = CARTESIAN_POINT('',(-2.963236821474,-45.9087443204));
#614 = CARTESIAN_POINT('',(-2.9564404761,-45.98555559523));
#615 = CARTESIAN_POINT('',(-2.944330209105,-46.12981679407));
#616 = CARTESIAN_POINT('',(-2.938958970177,-46.19667748468));
#617 = CARTESIAN_POINT('',(-2.933716356642,-46.26476794318));
#618 = CARTESIAN_POINT('',(-2.928599971674,-46.33401161847));
#619 = CARTESIAN_POINT('',(-2.923607581972,-46.40433926273));
#620 = CARTESIAN_POINT('',(-2.91873708464,-46.47568882082));
#621 = CARTESIAN_POINT('',(-2.913986474068,-46.54800531952));
#622 = CARTESIAN_POINT('',(-2.894045211056,-46.86324655495));
#623 = CARTESIAN_POINT('',(-2.88003536506,-47.11511637644));
#624 = CARTESIAN_POINT('',(-2.867238843731,-47.37529899285));
#625 = CARTESIAN_POINT('',(-2.855621814206,-47.64258427301));
#626 = CARTESIAN_POINT('',(-2.845168697859,-47.91596785937));
#627 = CARTESIAN_POINT('',(-2.835881930182,-48.19465470244));
#628 = CARTESIAN_POINT('',(-2.827776915754,-48.478038499));
#629 = CARTESIAN_POINT('',(-2.817272071515,-48.91670483883));
#630 = CARTESIAN_POINT('',(-2.813992673001,-49.06881340294));
#631 = CARTESIAN_POINT('',(-2.811054611999,-49.22196438639));
#632 = CARTESIAN_POINT('',(-2.808464464564,-49.37606593514));
#633 = CARTESIAN_POINT('',(-2.806230042563,-49.53102248104));
#634 = CARTESIAN_POINT('',(-2.804360296489,-49.68673423193));
#635 = CARTESIAN_POINT('',(-2.802865218281,-49.84309666163));
#636 = CARTESIAN_POINT('',(-2.801755744136,-50.));
#637 = ( GEOMETRIC_REPRESENTATION_CONTEXT(2) 
PARAMETRIC_REPRESENTATION_CONTEXT() REPRESENTATION_CONTEXT('2D SPACE',''
  ) );
#638 = PCURVE('',#182,#639);
#639 = DEFINITIONAL_REPRESENTATION('',(#640),#727);
#640 = B_SPLINE_CURVE_WITH_KNOTS('',8,(#641,#642,#643,#644,#645,#646,
    #647,#648,#649,#650,#651,#652,#653,#654,#655,#656,#657,#658,#659,
    #660,#661,#662,#663,#664,#665,#666,#667,#668,#669,#670,#671,#672,
    #673,#674,#675,#676,#677,#678,#679,#680,#681,#682,#683,#684,#685,
    #686,#687,#688,#689,#690,#691,#692,#693,#694,#695,#696,#697,#698,
    #699,#700,#701,#702,#703,#704,#705,#706,#707,#708,#709,#710,#711,
    #712,#713,#714,#715,#716,#717,#718,#719,#720,#721,#722,#723,#724,
    #725,#726),.UNSPECIFIED.,.F.,.F.,(9,7,7,7,7,7,7,7,7,7,7,7,9),(0.,
    9.19728543208E-02,0.210896833633,0.320227170984,0.38391271052,
    0.430045250404,0.499602605762,0.56993318548,0.616066214357,
    0.679752428943,0.732785241572,0.908031660613,1.),.UNSPECIFIED.);
#641 = CARTESIAN_POINT('',(0.,-19.85786437626));
#642 = CARTESIAN_POINT('',(-3.138140703612E-02,-19.8079368634));
#643 = CARTESIAN_POINT('',(-6.26538961366E-02,-19.75621538928));
#644 = CARTESIAN_POINT('',(-9.384307826791E-02,-19.70278595333));
#645 = CARTESIAN_POINT('',(-0.124974046829,-19.64774049122));
#646 = CARTESIAN_POINT('',(-0.156071974901,-19.59117601751));
#647 = CARTESIAN_POINT('',(-0.187162712504,-19.53319376814));
#648 = CARTESIAN_POINT('',(-0.218273383841,-19.47389834298));
#649 = CARTESIAN_POINT('',(-0.28972339131,-19.33516639065));
#650 = CARTESIAN_POINT('',(-0.330091090404,-19.25492848587));
#651 = CARTESIAN_POINT('',(-0.370603035376,-19.17290701535));
#652 = CARTESIAN_POINT('',(-0.411325980834,-19.08934484273));
#653 = CARTESIAN_POINT('',(-0.45232828841,-19.00450405486));
#654 = CARTESIAN_POINT('',(-0.493683283696,-18.91866720536));
#655 = CARTESIAN_POINT('',(-0.535474164134,-18.83213956107));
#656 = CARTESIAN_POINT('',(-0.616712273685,-18.66537436501));
#657 = CARTESIAN_POINT('',(-0.656063129287,-18.58522065241));
#658 = CARTESIAN_POINT('',(-0.695937562741,-18.50503211529));
#659 = CARTESIAN_POINT('',(-0.736417929619,-18.42510186869));
#660 = CARTESIAN_POINT('',(-0.777586386238,-18.34577777237));
#661 = CARTESIAN_POINT('',(-0.819529994829,-18.26746756777));
#662 = CARTESIAN_POINT('',(-0.862348950678,-18.19064662052));
#663 = CARTESIAN_POINT('',(-0.931692735114,-18.07230945568));
#664 = CARTESIAN_POINT('',(-0.95755074772,-18.02945439327));
#665 = CARTESIAN_POINT('',(-0.983765462334,-17.98741339692));
#666 = CARTESIAN_POINT('',(-1.010358097044,-17.94631511076));
#667 = CARTESIAN_POINT('',(-1.037347901423,-17.90630574412));
#668 = CARTESIAN_POINT('',(-1.064752463202,-17.86754830817));
#669 = CARTESIAN_POINT('',(-1.092588014947,-17.83022185268));
#670 = CARTESIAN_POINT('',(-1.141356461137,-17.76865949874));
#671 = CARTESIAN_POINT('',(-1.162075518133,-17.74365347959));
#672 = CARTESIAN_POINT('',(-1.183031520091,-17.71957703738));
#673 = CARTESIAN_POINT('',(-1.204227032065,-17.69651123464));
#674 = CARTESIAN_POINT('',(-1.225662294921,-17.67454210488));
#675 = CARTESIAN_POINT('',(-1.247334944476,-17.65375895325));
#676 = CARTESIAN_POINT('',(-1.26923973063,-17.63425265714));
#677 = CARTESIAN_POINT('',(-1.324732979701,-17.58876495604));
#678 = CARTESIAN_POINT('',(-1.358623486411,-17.56451056413));
#679 = CARTESIAN_POINT('',(-1.392987868433,-17.5436858063));
#680 = CARTESIAN_POINT('',(-1.427763610135,-17.52660221034));
#681 = CARTESIAN_POINT('',(-1.462876273752,-17.51353101123));
#682 = CARTESIAN_POINT('',(-1.498235784658,-17.50468123564));
#683 = CARTESIAN_POINT('',(-1.533730296618,-17.50017267647));
#684 = CARTESIAN_POINT('',(-1.605099467348,-17.4998329603));
#685 = CARTESIAN_POINT('',(-1.640997275181,-17.50409871042));
#686 = CARTESIAN_POINT('',(-1.676763273649,-17.51280918941));
#687 = CARTESIAN_POINT('',(-1.712281313645,-17.52584484202));
#688 = CARTESIAN_POINT('',(-1.747457859792,-17.54299206516));
#689 = CARTESIAN_POINT('',(-1.78221552121,-17.56397154298));
#690 = CARTESIAN_POINT('',(-1.816489137094,-17.58846122779));
#691 = CARTESIAN_POINT('',(-1.87235292296,-17.63425265714));
#692 = CARTESIAN_POINT('',(-1.894257709113,-17.65375895325));
#693 = CARTESIAN_POINT('',(-1.915930358668,-17.67454210488));
#694 = CARTESIAN_POINT('',(-1.937365621525,-17.69651123464));
#695 = CARTESIAN_POINT('',(-1.958561133499,-17.71957703738));
#696 = CARTESIAN_POINT('',(-1.979517135457,-17.74365347959));
#697 = CARTESIAN_POINT('',(-2.000236192452,-17.76865949874));
#698 = CARTESIAN_POINT('',(-2.049004638643,-17.83022185268));
#699 = CARTESIAN_POINT('',(-2.076840190387,-17.86754830817));
#700 = CARTESIAN_POINT('',(-2.104244752167,-17.90630574412));
#701 = CARTESIAN_POINT('',(-2.131234556546,-17.94631511076));
#702 = CARTESIAN_POINT('',(-2.157827191256,-17.98741339692));
#703 = CARTESIAN_POINT('',(-2.184041905869,-18.02945439327));
#704 = CARTESIAN_POINT('',(-2.209899918475,-18.07230945568));
#705 = CARTESIAN_POINT('',(-2.256679748268,-18.15214058221));
#706 = CARTESIAN_POINT('',(-2.277701857671,-18.18889761381));
#707 = CARTESIAN_POINT('',(-2.298503654254,-18.22607366197));
#708 = CARTESIAN_POINT('',(-2.319096993717,-18.26360805508));
#709 = CARTESIAN_POINT('',(-2.339493193486,-18.30144496582));
#710 = CARTESIAN_POINT('',(-2.359703242444,-18.33953322574));
#711 = CARTESIAN_POINT('',(-2.37973801064,-18.37782613992));
#712 = CARTESIAN_POINT('',(-2.465270164508,-18.54335601304));
#713 = CARTESIAN_POINT('',(-2.529091170991,-18.67211280096));
#714 = CARTESIAN_POINT('',(-2.591524617352,-18.80112418413));
#715 = CARTESIAN_POINT('',(-2.652867099382,-18.92919794264));
#716 = CARTESIAN_POINT('',(-2.713374071777,-19.05529430134));
#717 = CARTESIAN_POINT('',(-2.773271210281,-19.17852139746));
#718 = CARTESIAN_POINT('',(-2.832784386317,-19.29810996202));
#719 = CARTESIAN_POINT('',(-2.92331948492,-19.47389876077));
#720 = CARTESIAN_POINT('',(-2.954430094965,-19.53319404352));
#721 = CARTESIAN_POINT('',(-2.985520787136,-19.59117621472));
#722 = CARTESIAN_POINT('',(-3.016618828133,-19.6477409155));
#723 = CARTESIAN_POINT('',(-3.047750063097,-19.7027868428));
#724 = CARTESIAN_POINT('',(-3.078939515314,-19.75621668203));
#725 = CARTESIAN_POINT('',(-3.110211985916,-19.80793803972));
#726 = CARTESIAN_POINT('',(-3.14159265359,-19.85786437626));
#727 = ( GEOMETRIC_REPRESENTATION_CONTEXT(2) 
PARAMETRIC_REPRESENTATION_CONTEXT() REPRESENTATION_CONTEXT('2D SPACE',''
  ) );
#728 = ORIENTED_EDGE('',*,*,#729,.F.);
#729 = EDGE_CURVE('',#431,#458,#730,.T.);
#730 = SURFACE_CURVE('',#731,(#736,#746),.PCURVE_S1.);
#731 = ELLIPSE('',#732,20.980091309931,14.151845295746);
#732 = AXIS2_PLACEMENT_3D('',#733,#734,#735);
#733 = CARTESIAN_POINT('',(0.,4.450549450549,50.549450549451));
#734 = DIRECTION('',(0.,-0.707106781187,-0.707106781187));
#735 = DIRECTION('',(-0.,0.707106781187,-0.707106781187));
#736 = PCURVE('',#32,#737);
#737 = DEFINITIONAL_REPRESENTATION('',(#738),#745);
#738 = B_SPLINE_CURVE_WITH_KNOTS('',5,(#739,#740,#741,#742,#743,#744),
  .UNSPECIFIED.,.F.,.F.,(6,6),(4.372159206536,4.783188855141),
  .PIECEWISE_BEZIER_KNOTS.);
#739 = CARTESIAN_POINT('',(-3.179054598828,-55.5));
#740 = CARTESIAN_POINT('',(-3.091911108206,-54.35036785197));
#741 = CARTESIAN_POINT('',(-3.007581885166,-53.15891742415));
#742 = CARTESIAN_POINT('',(-2.925960173276,-51.94183173528));
#743 = CARTESIAN_POINT('',(-2.846858005738,-50.71648325143));
#744 = CARTESIAN_POINT('',(-2.77006819717,-49.5));
#745 = ( GEOMETRIC_REPRESENTATION_CONTEXT(2) 
PARAMETRIC_REPRESENTATION_CONTEXT() REPRESENTATION_CONTEXT('2D SPACE',''
  ) );
#746 = PCURVE('',#72,#747);
#747 = DEFINITIONAL_REPRESENTATION('',(#748),#752);
#748 = ELLIPSE('',#749,20.980091309931,14.151845295746);
#749 = AXIS2_PLACEMENT_2D('',#750,#751);
#750 = CARTESIAN_POINT('',(0.777040418886,-34.));
#751 = DIRECTION('',(-1.,0.));
#752 = ( GEOMETRIC_REPRESENTATION_CONTEXT(2) 
PARAMETRIC_REPRESENTATION_CONTEXT() REPRESENTATION_CONTEXT('2D SPACE',''
  ) );
#753 = ADVANCED_FACE('',(#754),#414,.T.);
#754 = FACE_BOUND('',#755,.T.);
#755 = EDGE_LOOP('',(#756,#777,#778,#799));
#756 = ORIENTED_EDGE('',*,*,#757,.T.);
#757 = EDGE_CURVE('',#431,#22,#758,.T.);
#758 = SURFACE_CURVE('',#759,(#763,#770),.PCURVE_S1.);
#759 = LINE('',#760,#761);
#760 = CARTESIAN_POINT('',(-34.,1.29237304722E-16,55.));
#761 = VECTOR('',#762,1.);
#762 = DIRECTION('',(1.,0.,0.));
#763 = PCURVE('',#414,#764);
#764 = DEFINITIONAL_REPRESENTATION('',(#765),#769);
#765 = LINE('',#766,#767);
#766 = CARTESIAN_POINT('',(4.569228727561E-17,-0.));
#767 = VECTOR('',#768,1.);
#768 = DIRECTION('',(0.,-1.));
#769 = ( GEOMETRIC_REPRESENTATION_CONTEXT(2) 
PARAMETRIC_REPRESENTATION_CONTEXT() REPRESENTATION_CONTEXT('2D SPACE',''
  ) );
#770 = PCURVE('',#72,#771);
#771 = DEFINITIONAL_REPRESENTATION('',(#772),#776);
#772 = LINE('',#773,#774);
#773 = CARTESIAN_POINT('',(7.071067811865,0.));
#774 = VECTOR('',#775,1.);
#775 = DIRECTION('',(0.,-1.));
#776 = ( GEOMETRIC_REPRESENTATION_CONTEXT(2) 
PARAMETRIC_REPRESENTATION_CONTEXT() REPRESENTATION_CONTEXT('2D SPACE',''
  ) );
#777 = ORIENTED_EDGE('',*,*,#396,.T.);
#778 = ORIENTED_EDGE('',*,*,#779,.F.);
#779 = EDGE_CURVE('',#429,#287,#780,.T.);
#780 = SURFACE_CURVE('',#781,(#785,#792),.PCURVE_S1.);
#781 = LINE('',#782,#783);
#782 = CARTESIAN_POINT('',(-34.,-5.,50.));
#783 = VECTOR('',#784,1.);
#784 = DIRECTION('',(1.,0.,0.));
#785 = PCURVE('',#414,#786);
#786 = DEFINITIONAL_REPRESENTATION('',(#787),#791);
#787 = LINE('',#788,#789);
#788 = CARTESIAN_POINT('',(7.071067811865,0.));
#789 = VECTOR('',#790,1.);
#790 = DIRECTION('',(0.,-1.));
#791 = ( GEOMETRIC_REPRESENTATION_CONTEXT(2) 
PARAMETRIC_REPRESENTATION_CONTEXT() REPRESENTATION_CONTEXT('2D SPACE',''
  ) );
#792 = PCURVE('',#182,#793);
#793 = DEFINITIONAL_REPRESENTATION('',(#794),#798);
#794 = LINE('',#795,#796);
#795 = CARTESIAN_POINT('',(-0.,0.));
#796 = VECTOR('',#797,1.);
#797 = DIRECTION('',(-0.,-1.));
#798 = ( GEOMETRIC_REPRESENTATION_CONTEXT(2) 
PARAMETRIC_REPRESENTATION_CONTEXT() REPRESENTATION_CONTEXT('2D SPACE',''
  ) );
#799 = ORIENTED_EDGE('',*,*,#428,.T.);
#800 = ADVANCED_FACE('',(#801),#182,.F.);
#801 = FACE_BOUND('',#802,.T.);
#802 = EDGE_LOOP('',(#803,#804,#805,#806,#807));
#803 = ORIENTED_EDGE('',*,*,#457,.F.);
#804 = ORIENTED_EDGE('',*,*,#779,.T.);
#805 = ORIENTED_EDGE('',*,*,#286,.T.);
#806 = ORIENTED_EDGE('',*,*,#84,.T.);
#807 = ORIENTED_EDGE('',*,*,#808,.F.);
#808 = EDGE_CURVE('',#458,#53,#809,.T.);
#809 = SURFACE_CURVE('',#810,(#814,#821),.PCURVE_S1.);
#810 = LINE('',#811,#812);
#811 = CARTESIAN_POINT('',(-34.,5.,50.));
#812 = VECTOR('',#813,1.);
#813 = DIRECTION('',(1.,0.,0.));
#814 = PCURVE('',#182,#815);
#815 = DEFINITIONAL_REPRESENTATION('',(#816),#820);
#816 = LINE('',#817,#818);
#817 = CARTESIAN_POINT('',(-3.14159265359,0.));
#818 = VECTOR('',#819,1.);
#819 = DIRECTION('',(-0.,-1.));
#820 = ( GEOMETRIC_REPRESENTATION_CONTEXT(2) 
PARAMETRIC_REPRESENTATION_CONTEXT() REPRESENTATION_CONTEXT('2D SPACE',''
  ) );
#821 = PCURVE('',#72,#822);
#822 = DEFINITIONAL_REPRESENTATION('',(#823),#827);
#823 = LINE('',#824,#825);
#824 = CARTESIAN_POINT('',(0.,0.));
#825 = VECTOR('',#826,1.);
#826 = DIRECTION('',(0.,-1.));
#827 = ( GEOMETRIC_REPRESENTATION_CONTEXT(2) 
PARAMETRIC_REPRESENTATION_CONTEXT() REPRESENTATION_CONTEXT('2D SPACE',''
  ) );
#828 = ADVANCED_FACE('',(#829),#273,.F.);
#829 = FACE_BOUND('',#830,.T.);
#830 = EDGE_LOOP('',(#831));
#831 = ORIENTED_EDGE('',*,*,#258,.F.);
#832 = ADVANCED_FACE('',(#833),#72,.T.);
#833 = FACE_BOUND('',#834,.T.);
#834 = EDGE_LOOP('',(#835,#836,#837,#838));
#835 = ORIENTED_EDGE('',*,*,#729,.T.);
#836 = ORIENTED_EDGE('',*,*,#808,.T.);
#837 = ORIENTED_EDGE('',*,*,#52,.T.);
#838 = ORIENTED_EDGE('',*,*,#757,.F.);
#839 = ( GEOMETRIC_REPRESENTATION_CONTEXT(3) 
GLOBAL_UNCERTAINTY_ASSIGNED_CONTEXT((#843)) GLOBAL_UNIT_ASSIGNED_CONTEXT
((#840,#841,#842)) REPRESENTATION_CONTEXT('Context #1',
  '3D Context with UNIT and UNCERTAINTY') );
#840 = ( LENGTH_UNIT() NAMED_UNIT(*) SI_UNIT(.MILLI.,.METRE.) );
#841 = ( NAMED_UNIT(*) PLANE_ANGLE_UNIT() SI_UNIT($,.RADIAN.) );
#842 = ( NAMED_UNIT(*) SI_UNIT($,.STERADIAN.) SOLID_ANGLE_UNIT() );
#843 = UNCERTAINTY_MEASURE_WITH_UNIT(LENGTH_MEASURE(1.E-07),#840,
  'distance_accuracy_value','confusion accuracy');
#844 = PRODUCT_RELATED_PRODUCT_CATEGORY('part',$,(#7));
ENDSEC;
END-ISO-10303-21;
